<svg xmlns="http://www.w3.org/2000/svg" width="70.27" height="51.98" viewBox="0 0 70.27 51.98"><g transform="translate(-7853.725 -4849.591)"><path d="M7867.434,4937.06a2.066,2.066,0,0,0,.031.379c.026.136,0,.063.047.161l.094.152a.18.18,0,0,1,.017.024l.019.024a2.767,2.767,0,0,0,.466.562l.023.019,2.325,2.079a.916.916,0,0,0,.271.223,5.077,5.077,0,0,1-.667.856l-1.055.921-.023.018-.541.323-.026.015c-.05.029-.037.02-.078.046l-.333.2a.17.17,0,0,1-.026.015.153.153,0,0,1-.028.014l-.9.373a2.39,2.39,0,0,1-.281.089l-.375.2-.05.032-.266.229c-.274.339-.185.278-.324.624-.023.063-.027.017-.064.144a1.443,1.443,0,0,0,.357,1.117,1.283,1.283,0,0,0,1.1.462,5.7,5.7,0,0,0,1.844-.585,3.289,3.289,0,0,0,.531-.291l.026-.015.077-.047a9.312,9.312,0,0,0,1.653-1.145c.007-.005.016-.015.022-.02l1.157-1.148c.183-.222.417-.422.576-.659.042.021.1.038.144.063l.9.584c.439.289.261.38-.036,1.1a.446.446,0,0,1-.069.136.151.151,0,0,1-.016.025l-.079.169c-.021.043-.028.051-.044.079l-.525.833-.019.022-.041.042c-.073.082-.115.129-.192.219l-.515.556-.021.02-1.669,1.213a.619.619,0,0,0-.082.042c-.084.047.007.005-.075.047l-.027.014-.837.356-.027.014c-.009,0-.02.01-.027.015l-.359.217a1.289,1.289,0,0,0-.477.552,1.63,1.63,0,0,0-.058,1.05l.269.472.421.321a1.712,1.712,0,0,0,1.321.027l.556-.226.027-.014.412-.206c.064-.028.068-.024.145-.062l1.188-.705.022-.018a8.882,8.882,0,0,0,1.095-.882c.018-.017.057-.058.062-.062l1.666-2,.619-1.152a1.121,1.121,0,0,0,.069-.177l.082-.167c.031-.068.042-.113.071-.174a.96.96,0,0,1,.4.138l.113.051a.751.751,0,0,1,.1.061l.605.3a.148.148,0,0,0,.028.013c.376.167.31.227.205.6-.056.2-.021.4-.081.578-.05.145-.062.081-.1.275a.991.991,0,0,1-.062.267c-.037.094-.019.028-.052.113l-.47,1.054-.016.026-.24.417c-.067.091-.072.1-.136.195l-.215.279a6.547,6.547,0,0,1-.822.864l-.044.038c-.65.548-.994.633-1.673,1.169a.549.549,0,0,0-.159.169,1.511,1.511,0,0,0-.127,1.524,1.268,1.268,0,0,0,.282.378,2.021,2.021,0,0,0,.418.281,1.193,1.193,0,0,0,1.015.023,2.759,2.759,0,0,0,.659-.33l.229-.14c.092-.061.158-.1.253-.16l1.738-1.472.022-.02.042-.039c.008-.009.032-.034.041-.042a.893.893,0,0,0,.094-.112c.066-.088.105-.144.179-.231l.272-.345.019-.024.473-.72a.494.494,0,0,1,.049-.074l.3-.525a5.547,5.547,0,0,0,.436-.964l.155-.462a1.366,1.366,0,0,1,.1-.272c.063-.159.017-.188.061-.352a1.947,1.947,0,0,0,.145-.678c.209,0,.161.024.3.068l1.024.334c.239.082.36.063.36.3a2,2,0,0,1-.06.516,1.414,1.414,0,0,0-.059.23,3.835,3.835,0,0,1-.129.735l-.284.992c-.016.055-.011.068-.03.134l-.7,1.482c-.062.111-.016.021-.066.1a8.957,8.957,0,0,1-.667.939l-.205.247a1.567,1.567,0,0,0-.418,1.771l.592.644.668.237.563-.136a1.719,1.719,0,0,0,.608-.462,11.661,11.661,0,0,0,.958-1.224l.018-.024.92-1.59c.027-.062.021-.059.05-.115l.117-.253c.046-.1.023-.028.068-.139l.146-.388c.028-.068.029-.095.051-.156l.257-.813a1.407,1.407,0,0,1,.1-.269.967.967,0,0,0,.051-.319c.022-.262.014-.083.088-.283l.157-.955c.022-.481.088-.265,1.19-.116.219.03.194.109.541.119.315.009.307.1.536.124a2.31,2.31,0,0,1-.1.646c-.032.159,0,.487-.053.688l-.14.6c-.05.158-.057.071-.1.27l-.109.425a6.685,6.685,0,0,1-.209.738l-.312.8a.408.408,0,0,0-.05.114,1.37,1.37,0,0,1-.05.156l-.964,1.877a1.5,1.5,0,0,0-.013,1.214c.02.037.016.029.041.082a1.656,1.656,0,0,0,.542.571,1.335,1.335,0,0,0,1.149.1,1.714,1.714,0,0,0,.891-.8l.271-.51a.159.159,0,0,0,.014-.027l.873-1.8c.05-.114.039-.166.089-.282l.274-.714c.037-.08,0,.029.045-.077l.338-1.311a6.254,6.254,0,0,0,.245-1.071,2.274,2.274,0,0,1,.027-.343,4.988,4.988,0,0,0,.138-1.016l1.476.089c.124.046.095.088.092.277-.028,2.5.011,5,0,7.5a1.82,1.82,0,0,0,.111.671.736.736,0,0,0,.111.341,1.36,1.36,0,0,0,.313.387l.248.164a.584.584,0,0,0,.286.125l.709.01a1.257,1.257,0,0,0,.815-.544l.017-.024.019-.024c.25-.351.115-.292.232-.673a.672.672,0,0,0,.063-.348c0-.69-.049-7.695.018-7.8.08-.132.534-.048.712-.071,1.172-.152.681-.175.979,1.018.049.2.021.384.056.6l.638,2.244a.308.308,0,0,1,.011.03l.328.908a.152.152,0,0,0,.013.029l.2.46c.016.042.014.047.031.091l.2.378c.013.021.023.037.045.078l.453.905a4.362,4.362,0,0,0,.341.564l.313.345a.419.419,0,0,0,.075.048l.026.016.178.11a1.39,1.39,0,0,0,1.889-.739c0-.009.01-.02.013-.028a1.3,1.3,0,0,0,.112-.671c0-.213-.07-.255-.128-.407-.019-.054-.011-.046-.028-.1l-.032-.091c0-.008-.009-.019-.014-.027-.04-.075,0,.005-.048-.076l-.882-1.753c0-.007-.033-.071-.038-.084l-.234-.631-.009-.032-.2-.463c-.018-.039-.009,0-.033-.091l-.37-1.442c-.08-.186-.032-.282-.063-.513-.085-.608-.441-1.157.308-1.208a2.149,2.149,0,0,0,.584-.114,4.246,4.246,0,0,0,.606-.093,1.926,1.926,0,0,1,.619-.082,9.75,9.75,0,0,0,.163,1.235c.021.272.093.24.126.574.021.2.047.136.1.272.034.094.034.21.063.307l.128.365c.049.167-.009,0,.062.146l.158.418c0,.008.009.02.012.029l.421.9c0,.009.008.02.011.03l1.008,1.627c.007.01.026.04.031.05l.3.4c.018.022.052.061.077.087l.21.242a1.673,1.673,0,0,0,.425.4l.1.069a.76.76,0,0,0,.421.154c.394.08.148.182.827-.031.1-.03.012,0,.111-.055l.463-.36a.215.215,0,0,0,.018-.024l.095-.151a1.61,1.61,0,0,0,.233-.8,1.472,1.472,0,0,0-.118-.459,5.963,5.963,0,0,0-.868-1.19l-1.058-1.867a1.563,1.563,0,0,0-.089-.2l-.42-1.35a4.229,4.229,0,0,1-.071-.547.99.99,0,0,1-.094-.481,1.564,1.564,0,0,0-.04-.578l.787-.283a1.492,1.492,0,0,0,.206-.042l.612-.252a1.911,1.911,0,0,1,.166.615c.036.144.061.146.1.314l.507,1.388a.368.368,0,0,1,.041.082l.894,1.577.018.023c.006.006.012.017.018.024a8.284,8.284,0,0,0,1.06,1.2l1.3,1.083c.1.062.167.1.259.154.051.032.075.056.123.082l.028.014.187.1c.008,0,.017.012.024.017l.358.218a2.589,2.589,0,0,0,.683.224,1.7,1.7,0,0,0,.928-.347,1.306,1.306,0,0,0,.4-.545,1.939,1.939,0,0,0,.11-.918c0-.1-.07-.134-.123-.248l-.17-.282-.02-.022a1.868,1.868,0,0,0-.521-.426.241.241,0,0,1-.027-.013l-.721-.432-.024-.017-.023-.019-.064-.06c0-.005-.015-.014-.02-.02-.145-.128-.29-.222-.437-.346l-.411-.411a6.507,6.507,0,0,1-.878-1.14l-.18-.314c-.042-.072-.006,0-.049-.075a5.661,5.661,0,0,1-.309-.718l-.128-.284c-.043-.187.006-.152-.075-.338-.052-.124-.023,0-.054-.151l-.157-.878c-.045-.348.387-.437.639-.562l.447-.212.028-.014c.151-.076.025-.072.221-.11a.189.189,0,0,1,.238.114c.028.054.009.035.032.09l.222.48a.308.308,0,0,0,.011.03.832.832,0,0,0,.032.092.779.779,0,0,0,.089.157l.21.369c.05.076.01.006.052.07l.417.653c.006.006.013.017.019.023l1.6,1.778.937.751a4.522,4.522,0,0,0,.614.373l1.19.624c.066.031.111.035.182.065a2.022,2.022,0,0,0,1.372.23,1.328,1.328,0,0,0,.962-.891,1.207,1.207,0,0,0,.01-.9l-.295-.528a2.649,2.649,0,0,0-1-.568c-.083-.042-.145-.063-.226-.1l-.493-.248c-.1-.054-.143-.079-.24-.128a1.638,1.638,0,0,1-.232-.14l-.024-.016-.024-.017-.025-.017-1.03-.821-.021-.021-1.194-1.481c-.031-.053-.024-.05-.057-.108l-.295-.569c0-.012-.022-.043-.028-.053-.058-.105-.017-.008-.058-.108l-.2-.542c-.052-.143-.015.018-.059-.146l.541-.365.023-.017.526-.337c.108-.071.1-.1.227-.1.154,0,.023-.005.107.058l.239.254a8.948,8.948,0,0,0,1.405,1.436l.772.625c.128.084.24.146.359.218l.844.514a6.1,6.1,0,0,0,.956.445.77.77,0,0,0,.127.037.375.375,0,0,1,.12.046,1.762,1.762,0,0,0,2.1-.224,1.021,1.021,0,0,0,.171-.282,1.5,1.5,0,0,0,.182-.832,1.646,1.646,0,0,0-.482-.88l-.7-.374c-.013,0-.054-.012-.066-.017l-1.607-.781c-.045-.029-.047-.027-.1-.06s-.061-.039-.129-.078a7.106,7.106,0,0,1-.659-.494c-.046-.033-.055-.039-.093-.071l-.193-.178-.043-.04a.2.2,0,0,0-.021-.02l-.043-.04c-.079-.074-.131-.119-.211-.2l-.348-.393c-.119-.152-.241-.292-.342-.442a12,12,0,0,1,1.123-.977l.5-.446.021-.02.021-.021.925-.887a.135.135,0,0,1,.021-.021,2.37,2.37,0,0,0,.582-.734,1.351,1.351,0,0,0,.014-1.046l-.276-.464-.332-.245-.077-.047c-.008,0-.019-.01-.026-.016a1.525,1.525,0,0,0-1.65.292l-1.075.982c-.065.06-.087.08-.147.14l-.263.231-.021.021-3,2.389c-.047.028-.119.078-.172.116l-.024.017-.395.264c-.007.005-.018.013-.023.019l-.277.174c-.548.361-.974.657-1.437.91l-1.142.627-.029.013-1.764.872a1.383,1.383,0,0,1-.193.094,1.855,1.855,0,0,0-.23.1l-.4.172a1.5,1.5,0,0,0-.2.089c-.081.041-.141.055-.23.1l-.4.175c-.087.041.008,0-.084.038l-.582.2a1.063,1.063,0,0,1-.2.087l-.654.211a.76.76,0,0,1-.209.078c-.418.1-.874.341-1.384.429-.205.035-.245.1-.455.121a.485.485,0,0,0-.229.059c-.3.132-.827.172-1.168.315-.171.071-.267,0-.478.1-.144.062,0,.047-.228.062l-.557.061c-.109.029-.081.034-.221.067-.17.04-.384.016-.557.06-.61.159-.5.048-1,.194-.212.063-.81.043-1.306.136-.093.017-.162.017-.259.03-.534.073-1.2.042-1.741.069-.358.018-.717.083-1.112.083-.751,0-1.441-.124-2.222-.123a4.862,4.862,0,0,1-1.1-.095c-.281-.058-.831-.017-1.11-.083-.107-.025-.044-.031-.213-.074-.27-.07-.508-.043-.781-.125a4.975,4.975,0,0,0-.521-.056l-.5-.116a3.5,3.5,0,0,1-.6-.1c-.145-.053-.279-.036-.412-.083-.337-.115-.38-.077-.677-.187l-.5-.118a.548.548,0,0,0-.217-.07,3.037,3.037,0,0,1-.459-.118c-.094-.021-.153-.011-.254-.034l-2.26-.788c-.217-.072.2.053-.065-.017l-.745-.285a2.121,2.121,0,0,1-.229-.1l-1.229-.542c-.1-.052-.105-.039-.206-.083l-.288-.124-.027-.014c-.079-.041,0-.009-.1-.06l-1.3-.676-.054-.029-3.339-2.053-.026-.016-.984-.744c-.237-.177-.433-.335-.677-.517l-1.763-1.531-.021-.02-.905-.823c-.047-.044-.09-.089-.149-.138l-.369-.248c-.222-.144-.164-.081-.463-.118a2.23,2.23,0,0,0-.545.014c-.215.025-.041-.014-.205.083l-.184.1A1.362,1.362,0,0,0,7867.434,4937.06Z" transform="translate(-7.863 -56.699)" fill="#d21113" fill-rule="evenodd"/><path d="M7916.873,4868.793c.044-.043.155.066.047.021,0,0-.115.048-.047-.021Zm7.123,5.491a.916.916,0,0,0-.053-.21l-1.461-2.244c0-.008-.012-.018-.016-.025a.221.221,0,0,1-.016-.025l-1.479-2.184c-.056-.085-.118-.154-.176-.236l-.771-1.123a.928.928,0,0,1-.1-.149l-3.136-4.6-.017-.024-.161-.25c0-.007-.012-.017-.018-.024l-.9-1.321a1.158,1.158,0,0,1-.081-.123l-.286-.416c0-.007-.013-.016-.018-.024l-1.5-2.2-.019-.024-.817-1.2c-.07-.1-.091-.148-.164-.248l-.4-.546c-.023-.034-.027-.042-.052-.073a1.011,1.011,0,0,0-.089-.116c0-.007-.014-.015-.019-.022l-.742-.905c-.082-.093-.105-.137-.183-.229l-.39-.433c-.046-.045-.055-.058-.1-.108l-.1-.1a.476.476,0,0,0-.042-.041l-1.544-1.377-.021-.021a15.008,15.008,0,0,0-2.158-1.5c-.119-.064-.166-.081-.27-.144l-2.425-1.155c-.157-.052-.007,0-.142-.065-.262-.125-.536-.184-.787-.283a1.647,1.647,0,0,0-.158-.047.967.967,0,0,1-.154-.052l-.494-.124c-.2-.084-.039-.059-.32-.09-.208-.023-.143-.051-.311-.1l-1.091-.186a2.862,2.862,0,0,0-.7-.121,1.69,1.69,0,0,1-.394-.06,20.492,20.492,0,0,0-3.888-.066c-.275.013-.4.119-.7.125a4.6,4.6,0,0,0-.7.122,2.628,2.628,0,0,0-.7.122c-.108.026-.239.031-.348.063-.165.049-.107.083-.31.1-.253.023-.136-.019-.342.07a1.724,1.724,0,0,1-.329.082c-.174.051-.088.058-.3.114-.291.078-.482.2-.764.266l-1.36.493c-.119.054-.178.061-.3.113l-.443.173c-.012,0-.044.021-.057.026l-1.579.6c-.151.053-.014,0-.143.064l-1.35.5c-.123.049-.027.025-.139.067l-1.378.517-.026.015a.367.367,0,0,1-.087.035c-.053.018-.086.018-.162.045l-.294.117c-.153.05-.1.072-.289.123l-.456.163c-.149.051-.015,0-.142.064s-.176.043-.3.106l-.027.015-1.78.689-.024.016-.077.047a1.516,1.516,0,0,0-.556.474,1.438,1.438,0,0,0-.094,1.427,1.535,1.535,0,0,0,.483.546,1.142,1.142,0,0,0,.627.237,2.929,2.929,0,0,0,1.268-.3l2.207-.839a.279.279,0,0,0,.028-.012l.689-.259a1.286,1.286,0,0,1,.225-.1l.154-.052a.139.139,0,0,0,.026-.015l3.46-1.315a1.481,1.481,0,0,0,.2-.088l.772-.3c.059-.019.067-.013.13-.035l1.329-.523c.052-.015.069-.012.133-.032l.6-.227a2.4,2.4,0,0,0,.236-.051,4.772,4.772,0,0,1,.7-.251,1.239,1.239,0,0,0,.258-.031c.183-.053.063-.06.238-.091.118-.022.213-.016.291-.038.187-.053.079-.054.244-.085l.77-.136a1.167,1.167,0,0,1,.292-.038,4.747,4.747,0,0,0,.574-.043,4.113,4.113,0,0,1,.579-.078h1.853a2.017,2.017,0,0,1,.458.077,8.691,8.691,0,0,1,.975.1,1.75,1.75,0,0,0,.438.1,1.259,1.259,0,0,1,.454.082c.193.076.279.03.446.087l.829.242a2.043,2.043,0,0,1,.4.138l1.889.787.026.014.029.013.3.154c.146.072.228.135.366.211l.292.159.027.014.426.276c.04.023.039.02.079.044a1.669,1.669,0,0,1,.169.119c.113.086.2.137.319.216l1.759,1.451c.036.033.021.019.063.061.028.027.045.047.062.062l1.922,2.276c.029.046.013.026.048.077l.557.8.05.073c.032.05.029.049.048.077l.064.1.019.023,1.224,1.782.018.023c0,.007.012.017.018.024l.563.836.045.076.455.658c.013.02.03.043.05.073l.114.174.05.074.169.242.019.024.018.023c0,.007.013.017.018.025l.324.5c.2.351,1.03,1.493,1.344,1.948a.28.28,0,0,1,.018.024l.228.349.048.074c.057.086.06.085.116.174l.771,1.122c.067.1.066.055.079.208a.614.614,0,0,1-.271-.141l-3.957-2.795c-.061-.045-.055-.04-.12-.084l-.674-.479-.022-.018-.348-.229c-.059-.041-.014-.012-.071-.052l-.263-.19a.264.264,0,0,0-.024-.017l-.144-.1-.026-.017-.524-.379-.026-.016-.873-.608-.022-.018-.025-.018-5.427-3.711-.817-.377-.026-.015a.266.266,0,0,0-.024-.016l-1.123-.359a6.8,6.8,0,0,0-.716-.148c-.061-.023-.01-.024-.141-.064a3.661,3.661,0,0,0-.583-.035,5.917,5.917,0,0,0-1.45-.113,2.926,2.926,0,0,0-.733.092c-.224.053-.489.013-.737.084a1.082,1.082,0,0,1-.339.073.911.911,0,0,0-.319.091c-.2.074-.636.16-.983.294-.388.149-1.744.557-1.963.669l-1.577.523c-.232.109-.527.158-.769.261-.1.045-.047.038-.138.069a1.431,1.431,0,0,1-.169.036.518.518,0,0,0-.145.06c-.284.132-.768.252-1.082.36l-.168.079c-.263.093-.522.133-.749.239l-1.252.435c-.113.052-.011.016-.157.05-.13.029-.042-.007-.162.044-.084.035-.036.031-.139.066l-1.228.419a1.666,1.666,0,0,0-.174.032l-.594.231c-.149.055-.156.012-.321.089l-2.47.865a2.336,2.336,0,0,0-.326.084l-.6.222c-.11.024-.06-.005-.169.036s-.05.04-.168.08l-.766.265-.028.013-.134.029a.338.338,0,0,0-.153.052c-.149.07.022.013-.146.063-.081.022-.09.015-.164.04l-.767.263a.637.637,0,0,0-.145.063l-.653.21c-.153.041-.056.01-.152.055a.471.471,0,0,1-.146.059.86.86,0,0,0-.167.039l-.907.328c-.165.076-.172.033-.321.089l-1.062.38c-.131.029-.04-.007-.161.044-.088.039-.033.034-.14.066-.064.019-.1.015-.176.031-.191.046-.112.066-.291.121l-2.793.953c-.073.022-.094.017-.165.042l-.3.108a.528.528,0,0,0-.163.042l-2.925,1.028-.028.012-1.517.5a.375.375,0,0,1-.15.055,1.3,1.3,0,0,0-.166.04l-.911.325c-.221.1-.542.154-.769.259-.381.178-1.225.38-1.6.544l-.574.208c-.067.021-.1.019-.165.041-.1.034-.055.03-.14.066-.138.059-.187.028-.324.088l-1.1.379a.674.674,0,0,0-.145.062c-.1.045,0,.014-.151.054-.334.088-.985.376-1.234.413-.474.068-.619.2-1.1.057a2.274,2.274,0,0,1-.981-.376l-.75-.856-.211-.447c-.024-.1-.007-.187-.029-.3a2.8,2.8,0,0,1-.106-.8l.319-1.163c.043-.076.1-.152.145-.226a3.532,3.532,0,0,1,.513-.641l.221-.19.021-.02a.2.2,0,0,0,.021-.019l.07-.054.023-.017.563-.3.026-.015,1.7-.649c.008,0,.018-.011.026-.015l.113-.051c.058-.019.067-.013.13-.034l.679-.268c.376-.116.728-.294,1.1-.42l1.222-.468a.746.746,0,0,1,.146-.059c.156-.055.153-.08.293-.12l.657-.248a.565.565,0,0,1,.158-.047l1.629-.635c.241-.106.42-.129.663-.243.126-.06-.009-.012.141-.065l1.226-.461c.082-.034.061-.034.14-.067l2.454-.922c.068-.031.186-.085.249-.121l.613-.539a1.582,1.582,0,0,0,.216-.979,1.4,1.4,0,0,0-.312-.676c-.006-.006-.014-.016-.02-.021l-.1-.1a1.051,1.051,0,0,0-.69-.336c-.175-.048-.112-.1-.232-.1-.142,0-.161.054-.319.092a1.822,1.822,0,0,0-.488.129l-.609.214c-.118.049-.01.019-.137.068l-.905.331a1.474,1.474,0,0,1-.295.117c-.146.039-.012-.012-.151.054s.008.011-.142.063c-.062.021-.086.022-.156.051s-.058.033-.139.066l-4.944,1.889c-.1.054.039.008-.148.058l-.9.332-.025.015c-.311.16-1.669.629-2.09.792l-1.482.577a.5.5,0,0,1-.141.065l-.312.14-.031.012-1.795,1.209-.914,1.184c-.008.011-.024.042-.03.053l-.077.128a2.359,2.359,0,0,0-.326.745c0,.011-.007.021-.011.031a3.192,3.192,0,0,0-.259.811c-.014.166-.086.308-.086.366v1.812l.245.906a1.113,1.113,0,0,0,.156.421,4.858,4.858,0,0,0,.65,1.119l.446.542a4.845,4.845,0,0,0,.757.642l.155.093.077.045c.07.043.045.029.1.066a2.377,2.377,0,0,0,.594.313.738.738,0,0,1,.218.069,2.407,2.407,0,0,0,.912.241,1.675,1.675,0,0,0,.5.113,3.785,3.785,0,0,0,1.323-.077l1.907-.562c.254-.107.493-.123.74-.248l1.377-.476a.716.716,0,0,0,.16-.046l2.117-.723c.1-.045,0-.014.151-.054a.851.851,0,0,0,.162-.045l1.066-.374a.791.791,0,0,0,.155-.051c.512-.228,1.19-.35,1.684-.58l.589-.192c.254-.065.491-.2.76-.271a.728.728,0,0,0,.167-.038c.137-.051.013-.02.138-.068a1.152,1.152,0,0,1,.164-.042l1.03-.37a.85.85,0,0,1,.165-.041c.231-.052.142-.06.295-.117l.315-.1c.144-.067.188-.047.313-.1l.028-.013.026-.014.086-.039c.064-.021.1-.019.17-.036l1.03-.369c.262-.1.507-.144.766-.263l.318-.094c.085-.036.037-.032.14-.067.038-.012.125-.025.169-.037.213-.051.115-.057.3-.113l.624-.2c.09-.034.05-.03.145-.061l3.652-1.247c.407-.1.8-.295,1.2-.409.079-.023.091-.015.165-.041l1.826-.643a2.909,2.909,0,0,0,.289-.082l1.224-.422c.219-.1.548-.162.77-.26l2.306-.782a.362.362,0,0,0,.149-.056l1.194-.411c.242-.112.518-.149.771-.258a1.009,1.009,0,0,1,.311-.1l.566-.218c.1-.041.21-.041.324-.086l.45-.167c.115-.054.026-.025.153-.053.317-.068.61-.211.93-.3l1.8-.625a1.462,1.462,0,0,1,.159-.047c.248-.069.511-.213.765-.264l1.233-.414c.123-.019.066,0,.171-.034.134-.047.029-.025.143-.064l1.047-.188a12.231,12.231,0,0,1,1.952.066l.257.072a2.977,2.977,0,0,1,.9.25l.509.192.028.013.027.014.8.435c.027.018.036.025.074.048.054.032.058.031.105.061l1.79,1.256.023.017c.007,0,.017.013.024.018l.729.505.047.036,1.083.771.022.018.871.61a.21.21,0,0,0,.023.018l.486.335c.009.005.018.013.025.018l.431.31c.026.018.044.028.074.05l.429.312c.729.522,1.491,1,2.207,1.539l1.151.824c.064.045.113.067.177.112l1.347.959c.021.015.024.021.071.052l2.275,1.594.024.018,5.074,3.57a1.987,1.987,0,0,0,.181.108.969.969,0,0,0,.972.115c.178-.054.175.007.331-.082a1.738,1.738,0,0,0,.625-.609c.025-.043.047-.081.072-.132.045-.092.03.012.053-.154l0-.007Z" transform="translate(-0.001 0)" fill="#d21113" fill-rule="evenodd"/><path d="M7915.95,4871.259c0,.265.044.236.1.433.1.328,0,.119.172.364a1.324,1.324,0,0,0,.561.51,1.513,1.513,0,0,0,1.462-.165.871.871,0,0,0,.281-.294.436.436,0,0,1,.036-.047.86.86,0,0,0,.19-.425,1.533,1.533,0,0,0,.01-.636c-.034-.268.03-.168-.135-.4l-.146-.225c-.1-.145-.205-.18-.361-.3s-.01-.062-.28-.132c-.462-.119-.357-.178-1,.023a1.456,1.456,0,0,0-.658.577c-.075.109-.028,0-.079.127Z" transform="translate(-40.984 -13.334)" fill="#d21113" fill-rule="evenodd"/></g></svg>