<svg xmlns="http://www.w3.org/2000/svg" width="55.782" height="66.929" viewBox="0 0 55.782 66.929"><g transform="translate(-7855.204 -3567.643)"><path d="M7905.324,3611.434c.644-1.341.523-7.524.523-9.281,1.147.551,2.483.834,2.483,3.53,0,1.986.406,5.751-3.007,5.751Zm-47.452-3.268c0-1.521-.214-3.632.649-4.842.583-.818.957-.749,1.835-1.171,0,3.286-.1,6.629.523,9.281a3.068,3.068,0,0,1-3.008-3.268Zm5.1-6.8c0-4.153-.014-7.482,1.345-10.943a18.353,18.353,0,0,1,.791-1.824,23.969,23.969,0,0,1,3.783-5.366,25.718,25.718,0,0,1,3.68-2.856,20.066,20.066,0,0,1,22.035.6l2.848,2.383a20.911,20.911,0,0,1,3.745,5.405,18.535,18.535,0,0,1,1.646,4.889,45.052,45.052,0,0,1,.389,7.977,20.127,20.127,0,0,1-8.893-1.957l-4.627-2.955a21.825,21.825,0,0,1-2.951-3.062c.743-.393,3.138-2,3.138-2.876a1.3,1.3,0,0,0-1.308-1.438c-.872,0-3.114,2.109-4.271,2.787-.548.321-.9.575-1.427.926-.956.637-1.939,1.242-2.93,1.777-.531.288-.922.529-1.524.829l-4.752,2.307c-1.089.49-2.232.863-3.378,1.328a47.659,47.659,0,0,1-7.339,2.073Zm10.327-24.445c5.107-2.7,13.338-3.042,18.649-.479a1.981,1.981,0,0,0,.959.348,10.078,10.078,0,0,0-1.547-2.637,10.788,10.788,0,0,0-14.533-1.809c-1.293.936-3.169,3.03-3.528,4.576Zm-12.941,20.131v2.484a5.055,5.055,0,0,0-3.964,2.18,2.456,2.456,0,0,0-.528.778c-.927,1.911-.605,4.039-.605,6.585a5.658,5.658,0,0,0,1.959,3.662,5.024,5.024,0,0,0,1.813,1.063,10.114,10.114,0,0,0,2.5.373,28.75,28.75,0,0,0,4.275,8.8,33.512,33.512,0,0,0,3.605,4.238,31.646,31.646,0,0,0,6.017,4.44c1.592.855,5.98,2.919,7.671,2.919a10.637,10.637,0,0,0,2.3-.571,24.907,24.907,0,0,0,4.144-1.739c.726-.361,1.408-.5,1.469-1.518a1.331,1.331,0,0,0-1.382-1.346,12.018,12.018,0,0,0-2.072.877c-.667.273-1.438.621-2.129.878-2.585.963-2.855.786-5.959-.541a24.179,24.179,0,0,1-6.106-3.566c-.329-.247-.349-.3-.636-.54-.312-.263-.4-.3-.713-.6l-3.525-3.793a26.13,26.13,0,0,1-5.391-15.394c-.065-2.287-.792-2.381.8-2.717a67.523,67.523,0,0,0,14.4-5.209c1.145-.573,2.027-1.136,3.138-1.7s2.031-1.312,3.094-1.874l1.6,1.8a22.281,22.281,0,0,0,1.816,1.714l1.914,1.483a24.115,24.115,0,0,0,2.207,1.324l2.3,1.1a25.5,25.5,0,0,0,8.853,1.736c0,10.281-3.4,13.609-3.4,14.771a1.432,1.432,0,0,0,1.623,1.37c.895-.2,1.053-.968,1.427-1.719a23.425,23.425,0,0,0,1.788-4.619,10.318,10.318,0,0,0,2.4-.341,5.5,5.5,0,0,0,1-.439,5.8,5.8,0,0,0,2.87-4.318c0-3.67.664-7.2-3.221-9.066-2.183-1.049-1.885.367-1.877-2.176a22.361,22.361,0,0,0-7.089-16.963c-2.277-2.254-2.108-.906-2.711-3.3a12.69,12.69,0,0,0-.525-1.568c-1.749-4.42-6.4-8.364-11.9-8.364a13.26,13.26,0,0,0-9.97,3.888c-3.349,3.349-3.526,6.969-3.837,7.4a9.486,9.486,0,0,1-.936.764,15.674,15.674,0,0,0-2.421,2.284c-.295.351-.524.5-.823.878a22.8,22.8,0,0,0-2.627,3.909A21.959,21.959,0,0,0,7860.356,3597.055Z" transform="translate(0 0)" fill="#d21113" fill-rule="evenodd"/><path d="M7952.39,3718.677l-6.535-2.614a20.56,20.56,0,0,1,1-2.66,8.046,8.046,0,0,1,.7-1.133l.887-1.074a4.486,4.486,0,0,1,.514-.4c1.179-.989,2.81-2.146,4.483-2.183a7.771,7.771,0,0,0,.573,1.651c.335.947,1.779,4.36,1.779,4.885,0,.264-3.022,2.97-3.4,3.529Zm-9.149-2.745c0,2.342,1.53,2.51,3.532,3.4.755.333,1.514.639,2.313.955,3.664,1.448,2.617,1.04,5.821,4.244.849.848,2.6,3.04,3.758,3.04a1.3,1.3,0,0,0,1.117-1.892c-.438-.867-4.962-4.653-5.168-5.429l2.844-2.908c.412.6,4.9,4.961,5.816,5.882.452.457.982,1.09,1.743,1a1.333,1.333,0,0,0,1.13-1.645c-.352-1.262-7.1-6.732-7.711-8.243-.165-.406-.273-.771-.423-1.145-.423-1.061-2.012-5.5-2.5-6.254-1.295-1.992-4.346-.688-5.865.109a12.062,12.062,0,0,0-5.143,5.055A10.234,10.234,0,0,0,7943.241,3715.932Z" transform="translate(-59.224 -92.994)" fill="#d21113" fill-rule="evenodd"/><path d="M7905.008,3685.708a1.359,1.359,0,0,0-2.067-1.028c-.684.393-2.48,2.246-4.86.375-.554-.436-1.163-.86-1.937-.375a1.344,1.344,0,0,0-.419,1.811c.584,1.087,4.729,3.419,8.093.9C7904.328,3687.008,7905.008,3686.564,7905.008,3685.708Z" transform="translate(-27.135 -78.588)" fill="#d21113" fill-rule="evenodd"/><path d="M7956.42,3685.718c0,1.3,1.967,2.257,3.049,2.574a6.455,6.455,0,0,0,6.134-1.63c.846-1.121-.321-3.117-2.181-1.655a3.437,3.437,0,0,1-3.783.5c-.631-.3-.565-.442-1.068-.766A1.363,1.363,0,0,0,7956.42,3685.718Z" transform="translate(-68.09 -78.597)" fill="#d21113" fill-rule="evenodd"/><path d="M7964.01,3625.865c0,2.356,2.615,1.946,2.615.262C7966.625,3624.257,7964.01,3624.678,7964.01,3625.865Z" transform="translate(-73.196 -38.484)" fill="#d21113" fill-rule="evenodd"/><path d="M8015.535,3765.443a1.317,1.317,0,0,0,1.118,1.308h.488a1.3,1.3,0,0,0,1.008-1.438C8018.149,3763.707,8015.535,3763.713,8015.535,3765.443Z" transform="translate(-107.858 -132.178)" fill="#d21113" fill-rule="evenodd"/></g></svg>