<svg xmlns="http://www.w3.org/2000/svg" width="73.849" height="77.8" viewBox="0 0 73.849 77.8"><g transform="translate(-7853.261 -4345.514)"><path d="M7901.431,4386.086h9.118c0,1.108.156,1.683.151,2.887,0,1.015-.054,2.2,0,3.193.053.971.152,1.833.152,3.038,0,3.353.713,6.371-.692,8.424a5.072,5.072,0,0,1-8.232.045c-1.278-1.708-.93-2.865-.8-5.277.051-.95,0-2.071,0-3.04,0-1.23.157-1.987.158-3.034,0-1.066,0-2.134-.009-3.2,0-1.112.155-1.792.155-3.036Zm18.12-40.571a7.074,7.074,0,0,0-3.97,1.385c-.527.395-2.6,2.207-2.6,2.87a1.278,1.278,0,0,0,1.214,1.215c.794,0,2.048-1.615,2.625-2.086a5.064,5.064,0,0,1,6.688.524,4.912,4.912,0,0,1,.076,6.543c-.387.412-.734.729-1.143,1.137l-5.814,5.43a2.636,2.636,0,0,1-.824-.847c-1.1-1.436-4.661-4.5-5.86-6.295.769-.515,2.126-1.735,2.126-2.735,0-.607-.729-.911-1.216-.911-.837,0-1.594,1.059-2.089,1.558l-3.924,3.672c-1.7,1.3-1.967,3.374-.065,4.647-.4.6-4.191,4.163-5.277,5.208l-2.282,2.124a32.76,32.76,0,0,1-4.9,4.217c0-1.629-.115-3.191-2.128-3.191h-9.725c-2.515,0-2.129,2.809-2.129,5.319-.506.135-.662.428-1.026.8a9.748,9.748,0,0,0-.887.937c-2.027,2.6-2.645,5.064-2.645,8.751a5.47,5.47,0,0,1-.868-.955,5.086,5.086,0,0,0-1.107-.868l-.151-3.5a1.952,1.952,0,0,0-1.824-1.823h-10.029c-2.513,0-2.127,2.821-2.127,5.319-.6.161-1.215.951-1.636,1.4a10.462,10.462,0,0,0-2.771,6.65v30.239a1.069,1.069,0,0,0,1.008,1.063h.259a1.155,1.155,0,0,0,.767-.4c.543-.639.246-2.527.246-3.4V4395.2a17.2,17.2,0,0,1,.33-4.532c.245-1,.729-2.6,1.646-3.217l-.152,8.813a6.6,6.6,0,0,0,2.24,4.6,7.4,7.4,0,0,0,12.065-2.751,14.467,14.467,0,0,0,.276-5.183c-.028-.938,0-1.946.006-2.893,0-1.127-.152-1.81-.152-2.735a7.427,7.427,0,0,1,1.693,3.17c.573,1.936.282,20.753.282,24.182v4.862c0,1.888-.365,3.8,1.519,3.8,1.4,0,.913-3.577.913-5.014,0-5.127-.231-33.322.127-35.43.208-1.223.816-3.387,1.849-4.078l-.152,8.662a6.376,6.376,0,0,0,1.69,4.236,3.071,3.071,0,0,0,.4.51c.163.164.727.6.924.748a7.536,7.536,0,0,0,8.841-.171,7.733,7.733,0,0,0,2.865-5.344,18.961,18.961,0,0,0-.139-2.557c0-.913,0-1.828,0-2.741,0-1.05-.151-1.777-.151-2.583,1.113.259,1.026.462,1.415,1.472.988,2.57.561,5.538.561,8.254l-.008,32.221c0,1.059.182,1.816,1.223,1.816,1.519,0,1.217-1.561,1.217-3.039V4399c0-2.515.373-4.692,1.974-6.534l-.15,9.117a5.459,5.459,0,0,0,.756,2.586,7.436,7.436,0,0,0,11.077,2.41,7.007,7.007,0,0,0,2.432-3.343c.848-2.372.17-7.591.17-10.77l1.015,1.569c1.089,2.184.962,4.482.962,7.091v5.318c0,1.737-.474,4.1,1.215,4.1.905,0,1.216-.613,1.216-1.52v-10.485a11.372,11.372,0,0,0-3.994-9.075c-1.274-1.213-.071-3.057-.78-4.536a1.835,1.835,0,0,0-1.607-1.128h-10.334c-1.922,0-1.835,2.257-1.822,3.647.015,1.507.183,1.3-.644,2.091a11.758,11.758,0,0,1-1.483,1.4c0-3.892.358-8.443-.912-11.093,3.461-.806,5.245-3.334,7.712-5.506l1.747-1.6c.315-.315.518-.52.833-.837l2.586-2.429a13.131,13.131,0,0,0,1.71-1.633c.888.595,1.051.912,2.278.912,1.129,0,3.319-2.477,4.141-3.306.66-.665,1.227-1.072,1.9-1.747l5.774-5.47a7.4,7.4,0,0,0,2.469-6.192,6.8,6.8,0,0,0-2.086-4.448,7.336,7.336,0,0,0-4.87-2.086ZM7860.1,4380.92h8.813c.725,0,.455,1.232.455,2.583l.152,6.231c0,2.894.784,6.464-.632,8.636-1.646,2.52-5.48,3.312-8.223.218-1.26-1.422-.861-2.949-.87-5.207-.017-4.231.3-8.263.3-12.461Zm25.376,11.093a5.341,5.341,0,0,1-4.15-2.08c-1.5-2.051-.861-3.642-.858-5.208,0-1.015,0-2.033-.008-3.047-.007-1.182.159-1.788.154-3.036-.009-2.28.151-4.059.151-6.231h9.116a7.024,7.024,0,0,1,.153,1.976c-.965.08-1.92.446-1.918,1.367,0,1.236,1.946,1.68,2.075,2.882.1.964-.151,3.613.036,4.979.229,1.665.335,4.424-.555,5.909a4.718,4.718,0,0,1-1.66,1.684,6.34,6.34,0,0,1-2.537.806Zm9.573-14.436a5.082,5.082,0,0,1-3.5-1.367c2.873-.67,6.1-4.769,7.6-5.775a8.35,8.35,0,0,0,1.086,1.347c.4.493.9.951,1.193,1.389a10.1,10.1,0,0,1-2,1.953c-.791.633-2.442,2.454-4.384,2.454Zm8.054-5.926c-.164-.613-1.478-1.69-2.28-2.887l5.472-5.318a10.229,10.229,0,0,1,1.953,2,8.539,8.539,0,0,1,.629.739c-.454.678-.841.78-1.408,1.326l-4.365,4.144Zm2.735-12.308a31.491,31.491,0,0,1,2.431-2.279c.833,1.242,5.806,6.054,6.534,7.143a11.529,11.529,0,0,1-2.279,2.127c-.728-.487-4.085-4.162-5.055-5.127Z" transform="translate(0 0)" fill="#d21113" fill-rule="evenodd"/><path d="M7997.163,4547.367a17.4,17.4,0,0,0,5.169-.453c3.893-1,1.856-2.739,1.213-2.739a18.277,18.277,0,0,0-2.592.6,13.824,13.824,0,0,1-5.632.026c-.96-.2-3.8-1.492-3.739.574C7991.63,4547.008,7995.746,4547.367,7997.163,4547.367Z" transform="translate(-92.085 -132.258)" fill="#d21113" fill-rule="evenodd"/><path d="M7942.816,4504.022c0-2.116-2.657-.785-3.629-.59a14.992,14.992,0,0,1-5.683.026l-2.541-.651a1.313,1.313,0,0,0-1.157,1.215c0,.77.535.995,1.17,1.2a13.841,13.841,0,0,0,4.247.772C7936.773,4506.019,7942.816,4506.069,7942.816,4504.022Z" transform="translate(-50.96 -104.717)" fill="#d21113" fill-rule="evenodd"/><path d="M7868.263,4529.63c0,1.419.734,1.448,2.156,1.8a15.7,15.7,0,0,0,5.138.484c1.589,0,5.622-.473,5.622-1.976,0-2.408-2.923-.3-6.382-.3a16.8,16.8,0,0,1-2.9-.286,20.464,20.464,0,0,0-2.718-.625A1.168,1.168,0,0,0,7868.263,4529.63Z" transform="translate(-9.987 -121.968)" fill="#d21113" fill-rule="evenodd"/><path d="M8038.285,4550.25v7.293a1.226,1.226,0,0,0,.976,1.216h.518c.5-.116.938-.584.938-1.52v-6.989A1.217,1.217,0,1,0,8038.285,4550.25Z" transform="translate(-123.179 -135.445)" fill="#d21113" fill-rule="evenodd"/></g></svg>