<svg xmlns="http://www.w3.org/2000/svg" width="72.395" height="72.365" viewBox="0 0 72.395 72.365"><g transform="translate(368.989 -171.502)"><path d="M-319.5,220.058l-1.548-1.462c-.212.2-.46.42-.694.653q-2.767,2.762-5.531,5.529c-.155.155-.312.31-.467.466-.531.535-1.131.774-1.714.147-.534-.575-.307-1.143.2-1.651q3-2.992,5.994-6c.22-.22.427-.452.707-.748l-1.61-1.313c-.1.087-.328.282-.541.5q-2.8,2.795-5.6,5.595c-.178.178-.355.356-.535.531a1.044,1.044,0,0,1-1.585.127c-.576-.544-.417-1.127.1-1.644,1.975-1.978,3.946-3.96,5.934-5.924a7.4,7.4,0,0,1,1.028-.705l-1.817-1.662-13.35,15.065c3.373,5.329,3.452,9.339.308,13a9.557,9.557,0,0,1-11.153,2.451c-4.222-1.873-5.977-5.664-5.3-11.529a10.523,10.523,0,0,1-6.282-.3,9.648,9.648,0,0,1-6-9.823,9.565,9.565,0,0,1,7.732-8.406,9.4,9.4,0,0,1,8.813,2.91c.74.765.828,1.35.3,1.859s-1.094.406-1.833-.374A7.416,7.416,0,0,0-366.06,219a7.365,7.365,0,0,0,2,9.09,7.333,7.333,0,0,0,9.379-.125,48.785,48.785,0,0,0,4.126-4.129,6.959,6.959,0,0,0,.45-8.56c-.836-1.237-.824-1.417.31-2.427q5.662-5.044,11.337-10.074c.277-.246.552-.494.866-.777l-1.559-1.577c-1.553,1.564-3.076,3.1-4.6,4.633q-1.063,1.069-2.134,2.13c-.512.51-1.092.7-1.645.129s-.354-1.138.16-1.651q3.2-3.195,6.393-6.4c.087-.087.16-.189.305-.363l-1.538-1.432c-1.355,1.36-2.726,2.737-4.1,4.112q-1.164,1.167-2.333,2.331c-.805.8-1.44.936-1.922.376-.657-.762-.159-1.311.384-1.851,1.914-1.906,3.816-3.823,5.734-5.725a8.624,8.624,0,0,1,.92-.687l-1.724-1.606q-3.158,3.191-6.343,6.406c-.22.222-.444.557-.7.6a1.65,1.65,0,0,1-1.239-.178c-.236-.243-.2-.829-.144-1.246.031-.231.341-.432.54-.631,1.908-1.912,3.812-3.827,5.736-5.723a4.9,4.9,0,0,1,.92-.567l-1.712-1.773c-.91.943-1.748,1.829-2.607,2.7-1.37,1.384-2.753,2.754-4.13,4.131-.512.512-1.09.706-1.645.135s-.36-1.137.155-1.651q3-2.995,5.994-6c.239-.239.467-.488.7-.728l-1.477-1.583c-1.18,1.207-2.293,2.352-3.414,3.488-.927.939-1.865,1.866-2.8,2.8-1.06,1.061-1.642,1.234-2.194.653s-.387-1.084.65-2.122q2.731-2.732,5.467-5.459a8.977,8.977,0,0,1,.922-.693l-1.726-1.588c-2.1,2.115-4.216,4.255-6.338,6.39-.22.222-.443.558-.7.6a1.649,1.649,0,0,1-1.239-.177c-.237-.242-.2-.828-.148-1.245.031-.23.342-.43.54-.629,1.908-1.912,3.812-3.827,5.735-5.723a5.108,5.108,0,0,1,.927-.579l-1.78-1.824c-.73.807-1.378,1.572-2.078,2.286-1.495,1.525-3.019,3.021-4.526,4.534-.525.527-1.111.822-1.713.2s-.32-1.186.214-1.717q3.007-2.989,5.995-6c.216-.217.421-.447.639-.68l-1.478-1.562c-1.335,1.358-2.606,2.656-3.884,3.948-.928.937-1.87,1.861-2.8,2.8-.531.537-1.117.779-1.719.183-.574-.567-.343-1.138.162-1.642,3.289-3.285,6.539-6.609,9.878-9.842,2.2-2.129,5.334-1.97,7.592.28q9.508,9.478,18.991,18.982c1.742,1.742,1.718,1.721,3.637.133,8.732-7.227,17.492-14.421,26.206-21.669a3.288,3.288,0,0,1,5.492,1.481,3.429,3.429,0,0,1-.868,3.133c-2.9,3.553-5.753,7.139-8.681,10.666q-6.859,8.262-13.81,16.449c-.639.752-.688,1.144.05,1.875q9.843,9.744,19.607,19.566c2.751,2.751,2.755,5.73.01,8.478q-4.428,4.433-8.86,8.861-.233.233-.469.464c-.524.512-1.1.666-1.642.081a1.042,1.042,0,0,1,.137-1.584q1.43-1.435,2.864-2.865c1.29-1.281,2.585-2.556,3.955-3.911l-1.622-1.389c-.135.123-.367.317-.58.53q-2.8,2.794-5.6,5.595c-.177.177-.355.355-.535.531a1.044,1.044,0,0,1-1.585.129c-.576-.541-.421-1.126.1-1.644q3-3,5.992-6c.242-.242.473-.493.775-.809l-1.506-1.312-.228-.357a5.389,5.389,0,0,1-.64,1.039c-1.914,1.95-3.855,3.873-5.784,5.808-.512.514-1.056.842-1.719.27-.551-.475-.481-1.083.215-1.781,2.194-2.2,4.4-4.386,6.648-6.625l-1.584-1.418c-.155.144-.4.363-.636.6q-2.734,2.729-5.464,5.462c-.155.155-.308.314-.467.465-.714.679-1.324.773-1.786.223-.548-.653-.256-1.2.27-1.724q2.975-2.954,5.929-5.929c.219-.22.427-.451.711-.752l-1.573-1.348c-.134.121-.366.315-.579.528q-2.8,2.795-5.6,5.595-.267.267-.535.531a1.045,1.045,0,0,1-1.585.133c-.577-.54-.425-1.124.094-1.644q3-3,5.992-6c.241-.242.472-.494.773-.809l-1.612-1.344c-.133.127-.378.353-.614.589q-2.966,2.963-5.928,5.931c-.514.515-1.058.844-1.722.269-.549-.476-.48-1.08.219-1.78C-323.97,224.495-321.764,222.309-319.5,220.058Zm-28.671-5.834a9.509,9.509,0,0,1-1.979,12.326,30.984,30.984,0,0,0-2.959,3.031,7.338,7.338,0,0,0,.023,9.519,7.42,7.42,0,0,0,9.4,1.607,7.411,7.411,0,0,0,1.272-11.843c-.988-.94-1-1.241-.112-2.266.533-.612,1.069-1.222,1.648-1.883a6.126,6.126,0,0,1-2.69-3.9c-.145-.731-.1-1.339.714-1.59.676-.21,1.16.208,1.36,1.157a3.809,3.809,0,0,0,2.1,2.676c13.468-15.036,26.536-30.373,39-46.242a4.057,4.057,0,0,0-1,.96q-19.207,19.228-38.43,38.441c-.289.289-.541.715-.888.818-.438.131-1.144.178-1.387-.074s-.155-.945-.025-1.391c.093-.319.49-.552.757-.818q19.282-19.286,38.564-38.572c.262-.262.51-.539.764-.809l-.183-.167C-317.852,187.82-333.191,200.774-348.172,214.224Zm22.652-3.664,22.9,22.9c.226-.268.527-.673.877-1.03,1.7-1.737,1.709-3.439-.023-5.172q-9.822-9.829-19.651-19.651c-.258-.258-.529-.5-.849-.805Zm-6.246-13.585a11.155,11.155,0,0,1-1.094-.833q-4.372-4.346-8.724-8.713-5.458-5.456-10.918-10.911a3.17,3.17,0,0,0-4.249-.578,20.226,20.226,0,0,0-1.821,1.7l22.8,22.793Z" fill="#d21113"/><path d="M-350.089,316.38a5.343,5.343,0,0,1,5.3,5.271A5.386,5.386,0,0,1-350.126,327a5.332,5.332,0,0,1-5.279-5.29A5.3,5.3,0,0,1-350.089,316.38Zm-.026,8.468a3.155,3.155,0,0,0,3.166-3.156,3.119,3.119,0,0,0-3.152-3.155,3.083,3.083,0,0,0-3.154,3.14A3.139,3.139,0,0,0-350.115,324.848Z" transform="translate(-9.318 -99.375)" fill="#d21113"/><path d="M-306.683,359.922a5.3,5.3,0,0,1-5.388,5.263,5.352,5.352,0,0,1-5.23-5.248,5.366,5.366,0,0,1,5.309-5.376A5.338,5.338,0,0,1-306.683,359.922Zm-5.283-3.206a3.158,3.158,0,0,0-3.175,3.149,3.112,3.112,0,0,0,3.048,3.156,3.108,3.108,0,0,0,3.266-3.129A3.141,3.141,0,0,0-311.966,356.716Z" transform="translate(-35.454 -125.564)" fill="#d21113"/></g></svg>