<svg xmlns="http://www.w3.org/2000/svg" width="70.446" height="70.474" viewBox="0 0 70.446 70.474"><path d="M-230.167,220.9c.179.46.335.867.5,1.272.821,2.051.5,2.98-1.374,4,1.312,1.671.247,3.633-1.9,4.6a24.393,24.393,0,0,1-.157,2.716,4.827,4.827,0,0,1-4.724,4.219,44.891,44.891,0,0,1-4.97-.2c-2.241-.157-4.478-.521-6.717-.531-2.934-.014-5.471,1.336-7.833,2.932-4.376,2.957-6.762,7.263-8.046,12.268a37.166,37.166,0,0,0-1.067,9.509c0,.269.011.538,0,.807a1.575,1.575,0,0,1-1.186,1.64,1.508,1.508,0,0,1-1.743-1.012,25.173,25.173,0,0,1-2-6.781c-1.6-10.171,1.2-19.273,6.814-27.667a64.97,64.97,0,0,1,11.7-12.884,122.954,122.954,0,0,0,18.741-20.448c.159-.217.308-.442.477-.65a1.471,1.471,0,0,1,1.83-.479,1.458,1.458,0,0,1,.816,1.638c-.374,2.336-.781,4.666-1.14,7-.248,1.616-.452,3.239-.648,4.862a5.8,5.8,0,0,0,2.529,5.446,13.331,13.331,0,0,0,1.748,1.2,3.44,3.44,0,0,1,1.87,3.592,1.825,1.825,0,0,1-1,1.589C-228.476,219.971-229.285,220.424-230.167,220.9Zm-38.515,32.169c.273-1.032.508-2.076.825-3.095,1.974-6.325,5.655-11.258,11.73-14.184a14.192,14.192,0,0,1,6.932-1.821c1.827.1,3.647.341,5.472.487,1.752.141,3.507.315,5.263.337,1.782.023,2.689-1.061,2.522-2.836a11.74,11.74,0,0,0-.3-1.652,1.54,1.54,0,0,1,1.246-2.082c.41-.1.811-.239,1.279-.379a3.632,3.632,0,0,1-.706-2.789,2.775,2.775,0,0,1,1.947-1.893c-.253-.635-.477-1.2-.7-1.765-.628-1.565-.472-1.991,1.032-2.808l2.461-1.336c-.972-.718-1.9-1.319-2.726-2.028a8.368,8.368,0,0,1-3.362-6.919c.062-1.363.259-2.72.416-4.077.1-.874.243-1.744.366-2.616a1.672,1.672,0,0,0-.593.5,122.026,122.026,0,0,1-14.087,14.81,81.759,81.759,0,0,0-8.968,8.85,43.5,43.5,0,0,0-9.172,16.912A28.2,28.2,0,0,0-268.681,253.072Z" transform="translate(297.074 -193.703)" fill="#d21113"/><path d="M-319.915,250.849c-.039-8.106,2.649-15.349,7.094-22.014a62.487,62.487,0,0,1,11.285-12.569,125.253,125.253,0,0,0,19.454-21.184c.405-.557.837-1.049,1.592-.993a1.471,1.471,0,0,1,1.035,2.409c-1.295,1.777-2.61,3.543-3.985,5.258a133.23,133.23,0,0,1-16.6,17.166,52.519,52.519,0,0,0-13.913,18.112,33.2,33.2,0,0,0-3.017,15.518,26.309,26.309,0,0,0,2.108,9.3,1.5,1.5,0,0,1-.617,2.182c-.832.4-1.638.028-2.1-.994a28.626,28.626,0,0,1-2.331-9.991C-319.955,252.318-319.915,251.582-319.915,250.849Z" transform="translate(335.765 -193.715)" fill="#d21113"/><path d="M-399.919,335.736a38.366,38.366,0,0,1,5.75-19.582,61.851,61.851,0,0,1,13.516-15.426,1.5,1.5,0,0,1,2.215.057,1.524,1.524,0,0,1-.346,2.251,65.115,65.115,0,0,0-7.868,7.776c-4.422,5.233-7.862,11-9.4,17.749a28.994,28.994,0,0,0,1.647,18.834,1.468,1.468,0,0,1-.68,2.047,1.438,1.438,0,0,1-1.967-.733,25.791,25.791,0,0,1-2.445-8.235C-399.708,338.9-399.782,337.316-399.919,335.736Z" transform="translate(400.104 -279.123)" fill="#d21113"/><path d="M-186.54,462.767a17.866,17.866,0,0,1,2.5-.995,4.863,4.863,0,0,1,5.267,2.3,4.855,4.855,0,0,1-.494,5.8c-1.969,2.106-4.041,4.117-6.1,6.139a1.406,1.406,0,0,1-2.15-.076c-1.945-1.927-3.9-3.849-5.8-5.813a4.947,4.947,0,0,1-.2-6.726,4.962,4.962,0,0,1,6.739-.8Zm.267,10.055c.707-.728,1.449-1.5,2.2-2.263.839-.854,1.718-1.671,2.521-2.558a2.008,2.008,0,0,0-.075-2.786,2.029,2.029,0,0,0-2.784-.074c-.279.236-.526.51-.793.761a1.5,1.5,0,0,1-2.373-.005,10.068,10.068,0,0,0-.967-.893,2.03,2.03,0,0,0-2.665.265,1.892,1.892,0,0,0-.105,2.6C-189.705,469.535-188.015,471.121-186.273,472.822Z" transform="translate(235.065 -408.917)" fill="#d21113"/><path d="M-320.225,193.439a5.1,5.1,0,0,1,6.195-.331,4.934,4.934,0,0,1,.9,7.389c-1.93,2.107-4.005,4.083-6.045,6.087a1.4,1.4,0,0,1-2.147-.078c-1.946-1.926-3.9-3.848-5.8-5.813a4.952,4.952,0,0,1-.267-6.669,5,5,0,0,1,6.736-.9C-320.518,193.215-320.386,193.32-320.225,193.439Zm.077,9.878c1.563-1.551,3.2-3.126,4.772-4.755a1.957,1.957,0,0,0-.063-2.773,2,2,0,0,0-2.831-.051c-.31.275-.582.593-.894.865a1.436,1.436,0,0,1-2.1-.014c-.363-.325-.683-.7-1.07-1a1.967,1.967,0,0,0-2.658.21,1.92,1.92,0,0,0-.122,2.657C-323.5,200.121-321.811,201.7-320.148,203.317Z" transform="translate(342.703 -192.207)" fill="#d21113"/><path d="M-351.747,378.638a6.7,6.7,0,0,1,1.23,1.036,1.255,1.255,0,0,1-.132,1.568,19.914,19.914,0,0,0-3.708,8.418,38.439,38.439,0,0,0-.6,11.218,59.107,59.107,0,0,0,1.637,9.8,1.511,1.511,0,0,1-1.043,1.907,1.491,1.491,0,0,1-1.841-1.228,55.64,55.64,0,0,1-1.874-15.788,29.467,29.467,0,0,1,3.62-14.017,14.264,14.264,0,0,1,1.423-2.036A6.247,6.247,0,0,1-351.747,378.638Z" transform="translate(366.478 -342.16)" fill="#d21113"/><path d="M-264.253,215.7a1.541,1.541,0,0,1-1.571-.886,1.375,1.375,0,0,1,.287-1.622c.5-.5,1.043-.959,1.566-1.437a87.433,87.433,0,0,0,14.618-16.837c.4-.614.757-1.253,1.14-1.877a1.473,1.473,0,0,1,2.057-.653,1.412,1.412,0,0,1,.513,2.086c-1.876,2.794-3.7,5.635-5.758,8.295a89.875,89.875,0,0,1-11.878,12.349A5.146,5.146,0,0,1-264.253,215.7Z" transform="translate(292.36 -192.194)" fill="#d21113"/><path d="M-396.482,261.1a4.368,4.368,0,0,1-4.381-4.439,4.363,4.363,0,0,1,4.455-4.362,4.367,4.367,0,0,1,4.346,4.4A4.37,4.37,0,0,1-396.482,261.1Zm1.478-4.435a1.527,1.527,0,0,0-1.493-1.425,1.527,1.527,0,0,0-1.425,1.493,1.527,1.527,0,0,0,1.493,1.426A1.528,1.528,0,0,0-395,256.665Z" transform="translate(400.863 -240.539)" fill="#d21113"/><path d="M-84.562,466.765a4.371,4.371,0,0,1-4.487,4.335,4.374,4.374,0,0,1-4.314-4.505,4.368,4.368,0,0,1,4.448-4.3A4.368,4.368,0,0,1-84.562,466.765Zm-4.409,1.393a1.526,1.526,0,0,0,1.467-1.452,1.525,1.525,0,0,0-1.451-1.467,1.525,1.525,0,0,0-1.467,1.451A1.526,1.526,0,0,0-88.971,468.158Z" transform="translate(153.525 -409.453)" fill="#d21113"/></svg>