<svg xmlns="http://www.w3.org/2000/svg" width="324.907" height="294.745" viewBox="0 0 324.907 294.745">
  <g id="Сгруппировать_40" data-name="Сгруппировать 40" transform="translate(2774.753 -6341.966)">
    <path id="Контур_78" data-name="Контур 78" d="M-2774.753,6463.329l7.459-7.459,13.281-13.281,7.638-7.639,7.639,7.639,9.846,9.846-6.059,6.059,18.528,1.44-27.469-27.469,28.5-28.495,28.1,28.1-28.5,28.495-.077-.077-9.489,9.916-19.649-1.864-4.809,4.809,10.754,10.755-7.459,7.459-20.6-20.6-7.639-7.639Zm100.492-100.493,3.02-3.019,7.638-7.638,2.575-2.575,7.638-7.638,8.012,8.012,20.093,20.093-7.639,7.638-20.092-20.093-2.575,2.575,20.093,20.093-7.639,7.638-20.092-20.092-3.019,3.019,20.092,20.092-7.638,7.638-20.092-20.092-8.013-8.013,7.638-7.638Zm-38.505,38.506,28.105,28.1,28.495-28.495-28.1-28.1-28.5,28.5Zm15.194-.1,13.016,13.016,13.2-13.2-13.015-13.016-13.2,13.2Zm-31.124,31.123,13.016,13.016,13.2-13.2-13.016-13.016-13.2,13.2Zm-15.471,20.075-2.207-2.208-13.281,13.281,2.207,2.208Z" fill="#fff" fill-rule="evenodd"/>
    <rect id="Прямоугольник_53" data-name="Прямоугольник 53" width="171.779" height="171.779" transform="translate(-2744.034 6494.048) rotate(-45)" fill="#fff"/>
    <path id="Контур_79" data-name="Контур 79" d="M-2666.823,6547.321l.072.7c-.816.6-.578.61-1.075,1.508-.391.705-.949.818-.942,1.735,1.872,1.546,1.718-.964,3.223.191-.135.552.12.127-.4.642-.425.426-1.808,1.043-1.112,2.05.948-.264,1.183-2.04,2.959-1.607-.29.79-1.422.957-1.89,2.94-.582,2.469,1.063,3.9,1.387,2.009-.031-.039-.088-.137-.108-.1l-.959-.587c1.246-1.111,1.116-1.992,2.129-2.156a1.527,1.527,0,0,1,.195.95c-.591.481-.9.2-.989,1.153a3.9,3.9,0,0,0,1.349-.437c.471-.163.989-.121,1.616-.3l.051-1.474c.645.342-.041,1.252,2.489.195-.128-.763-.491-.514-.062-1.418a5.368,5.368,0,0,0,.661-1.253l.819.3.808-4.353c-.036-1.119-.229-.775.227-1.758l.117-.5-1.189-.443c.154-1.152,1.289-1.8,1.668-7.138.11-1.551.413-6.348,2.009-6.988.464-.186,1.191-.256,1.79-.471,3.924-1.411,4.742-2.784,9.229-4.2.588-.186,1.329-.2,1.875-.389.476-.165,1.688-1.469,2.37-1.93,2.534-1.713,6.647-2.706,9.527-3.917,3.46-1.455,3.6-2.793,6.007-2.9,2.523-.112,4.842-2.569,6.511-2.421,0,.889-.411.976-.679,1.671-.535,1.39.167.812.548,1.729l-1.149.26c.208,3.49-.687,4.033-.715,5.27-.018.8.175.016.155,1.023-.009.437-.285,1.438-.339,2.239l-.221.157c-.125.107-.477.135-.439.694.051.754.441.122.378.966-.384.256-.49.055-.859.251l-.076,3.1c.466.285.24.025.848.166-.321,1.159-1.865,1.793-1.7,3.233,0,.043.027.108.033.142.157.942.881.54,1.6.811.114.815-.607.9-1.016.721l-.414-.261c-.039-.026-.088-.075-.138-.1.264,1.416.857,1.038-.15,2.3-.85,1.069-.928.983-.392,2.126-.025.037-.079.037-.094.1s-.075.074-.1.095c-.271.27-.355.08-.539.716a7.262,7.262,0,0,0,.9,3.965c-1.653.682.111-1.25-1.711-.99-1.012,1.74.937,1.576,1.436,2.322l-1.462.331c-.146.848.021.99.619,1.262.691.315.765.074,1.083.82-.291.47-.771.489-1.226.707-.042.02-.1.058-.133.075a1.05,1.05,0,0,0-.135.08c.852.682,1.777.194,2.335,1.587-1.515-.214-3.87-.313-3.548,1.975a2.707,2.707,0,0,0,1.115,1.8,18.5,18.5,0,0,1,1.5,1.533c-.324,1.108-1.85,1.522-2.049.13-.12-.84.52-.422-.344-.849-.3.667-.017.671-.26,1.6l-.621,3.819c0,.892.149.6,1.373.7a4.207,4.207,0,0,1-.449.878c-.659-.171-.556-.608-1.245-.838.165,2.667-.564,5.238-.155,7.86.111.717.461,1.7.455,2.135l-1.276.572c-.257,1.46.438,1.2,1.532,1.258.268.317.167.3.32.51.538.749,1.18.349,1.242,1.547-1.692.07-.841-.516-1.458-1.3a1.2,1.2,0,0,0-.925-.386l-.995.47c.439,1.351,2.792,1.805,3.033,3.816l-.183.844c-.368-.293-.18-.615-.345-.991-1.236.226-.2.3-1.273.5-.449-1.127-.086-2.5-1.272-2.894-.076.969.33,1.323.184,2.25a12.624,12.624,0,0,0-.519,2.3c.578-.159,1.264-.791,1.286.177.017.72-.729.946-1.122,1.267.158,1.9,1.813,2.2,1.626,3.38-1.3-.056-.9-.629-1.989-.934-1.123,2.29-.673,2.152-.414,3.118a6.275,6.275,0,0,1-.043,1.584c.508-.024,1.018.038,1.231-.227.014-.018.039-.064.052-.086,0,0,.157-.455.167-.481-.243-.259-.648-.548-.932-.862.732-.283,1.195-.23,1.257.416.107,1.12-.054,3.127-1.515,3.5-.682-.464.051-.326-.72-.845-.058,1.833-.151,1.865,1.13,2.9a24.155,24.155,0,0,1,1.709,2.015c-.587-.506-.717-.076-1.339-.289-.685-.235-.63-.757-.952-1.309a1.53,1.53,0,0,0-.39.291.8.8,0,0,0-.276.422,3.417,3.417,0,0,0-.193,1.354l.125,1.157c.022.358.082.2.475.766-.8.33-.351,1.6-.3,2.408.136,2.043-.38,1.281-.712,2.386.524,1.264,1.792.421,1.749,2.056-.736-.117-.317-.148-.725-.442-1.256-.9-1.6.686-.433,1.485a2.315,2.315,0,0,0,1.525.376c.407.626.158.869,0,1.314-.558,1.6-1.622,1.4-2.046,3.186.478-.209.311-.408.64-.893a5.043,5.043,0,0,1,1.378.331c-.045.763-.227.823-.65,1.289l-1.057-.282c.123,1.438,1.146,1.3,1.318,2.269-.327.371-.841.719-1.213.135-.248-.389-.077-.313-.191-.663l-.828-.563c-.094.435.421,1.4.188,2.526-.2.977-.583,1.611.4,2.231.624-.152.641-.251.91-.736-.26-.414-.047-.1-.411-.347-.5-.345-.1.221-.486-.322,1.216.636.455-.358,1.241.95.353.586,1.044.873.431,1.443-.716.336-.837-.044-1.349-.307.157.616.34.59.8.871a4.109,4.109,0,0,0,1.225.672,4.545,4.545,0,0,0,2.916-.31c.249,2.828,1.556.521,2.06,2.349-.857.931-.948.567-1.275,2.126-.175.834.024.649-.625,1.048-.6.368.028-.292-.514.363a3.083,3.083,0,0,0-.383.773c.242.182.073.085.444.228.171.065.243.037.453.117l-.858.427a2.584,2.584,0,0,1-.32-1.705c.018-.013.3-.17.307-.173l.352-.2c.028-.017.084-.045.124-.072a4.439,4.439,0,0,1-.22-1.568,13.431,13.431,0,0,0,1.276-.621l-.291-.938-1.466.643c-.2-.514.225-.485-.649-.852-1.57-.659-1.248-.038-2.657.21a3.933,3.933,0,0,0-1.7.368c.228.674,1.118.627,1.372,1.206a9.2,9.2,0,0,0,.1,2.438c.284.9.7.722.652,1.778-.946.367-2.02-.2-2.242,1a2.882,2.882,0,0,0,.779,2.51l3.591-2.513a4.608,4.608,0,0,1-1.576,2.141c-.845.646-1.563.989-1.745,2.387l.333-.314c.029-.028.07-.067.1-.1l.776-.678c.2.5.249.356.352.729.24.862.075,2.089.58,2.828.637-.215.144-.009.45-.375.336-.4-.011-.25.412-.49.545.357.592,1.034,1.257,1.372.921.468.658-.356.01-1.05-.432-.463-.631-.528-.584-1.347.381-.114,1.043-.362,1.436-.174.2.1.243.2.389.451.425.731-.313.313.422.6a3.138,3.138,0,0,0-.215-2.014c-1.033-.179-1.013.294-1.842.448.222-.661.558-.671-.011-1.485-.029.027-.065.038-.075.09a2.382,2.382,0,0,1-1.647,1.429,9.363,9.363,0,0,1,1.431-2.56l.21-.307a.8.8,0,0,1,.081-.093c.583.629.514,1.113,1.491,1.01-.08-1.729-.071-1.911,1.614-2.37a7.074,7.074,0,0,0-.809-1.832c.361.276.381.251.947.27.131.79.074.941.549,1.381,1.813-.392.445-2.372-.4-3.21-.654-.647-1.1-.661-.633-2.045.693-.348,1.2.3,1.732.6l1.54-1.5c-.077-.827-.016-1.015-.686-1.293-1.187.508-.222,1.459-1.409,1.151l-.106-.288c-.045-.343-.109.1-.02-.425.13-.776.721-.916,1.321-1.114l.384-.145a1.923,1.923,0,0,0-.493-1.379c.253-.465.717-.684.615-1.152-.143-.651-.519-.143-.826-1.089.277-.122.545.026.815-.231.349-.331-.115-.3.725-.762a20.543,20.543,0,0,1-.03-2.823c.206-1.55-.06-1.579-1.14-2.017.11-1.043.477-.5.373-1.4-.086-.738-.384-.414-.736-1.065,1.256-.068,1.392.411,2.239.022.224-2.01-.652-5.268-.033-9.69a16.217,16.217,0,0,0,.275-4.721c-.349-2.336-1-2.412,1.056-3.345.059-1.588-.412-1.157-1.142-1.9.271-.519.553-.484,1.074-.675.251-1.845-.65-.9.293-4.2a8.406,8.406,0,0,0,.17-1.626l-1.431-.178c-.089-1.065.9-1.091,1.712-1.342a7.727,7.727,0,0,0-.905-4.552c.539.14.938.507,1.271-.089.382-.686-.091-.375-.207-.981a1.168,1.168,0,0,1-.03-.483c.037-1.257.93-1.586-.023-2.761-.451.625-.123.8-1.127.624-.049-1.187.361-1.566,1.452-1.278.068-.751-.042-.523-.127-1.276l1.232.108c-.094-4.212-1.313-3.668-.871-4.864.534.153.635.3.774.762.519-.715.341-.879-.147-1.652-.574-.91.021-.873-.022-2.112l.993-.1a5.21,5.21,0,0,0-.221-1.484c-.159-1,.118-.564.079-1.477a4.8,4.8,0,0,1-2.2-2.947c.458-.585.467-.539,1.205-.872,0,1-.334.692.247,1.674a6.232,6.232,0,0,1,.752,1.483c1.026-.67,1.045-1.6,1-2.805l-.011-.944-1.249-.065c-1.095-.212-1.156-1.757.267-1.852-.17.558-.294.5,0,1,.2.325.431.537.848.4.623-.211.33-1.622.444-2.275.151-.879.41-1.385.5-2.281.275-2.628-1.558-1.762.93-3.627-.409-1.762.045-2.852.394-4.376.32-1.405-2.2-3.268.369-2.33.69-.659.645-.031.62-1.052-.6-.377-.746-.047-1.362-.517.072-.865.374-.564,1.076-1.148-.172-1.315-.961-.609-1.335-1.924,1.158-.02,1.1.293,2.308-.375.123-.98-.233-1.558.037-2.449.565-1.859.245-.5-.226-1.861.029-.037.08-.136.095-.1s1.8-2.006,1.4-3.512c-.2-.735-.355-.5-.669-1.21-.018-.488,1.071-.657,1.538-2.715.494-2.178.11-1.909-.247-3.737.718.08.682.258,1.241-.1-.106-.83.25-.2-.6-.616-.472-.23-.5-.082-.606-.763.417-.434.835-.443,1.492-.727.269-1.737-.5-2.419-.419-3.43.086-1.041.445-.219,1.156-.863.41-.37.271-1.11.389-1.675.247-1.184,1.492-1.1,2.731-1.4.635-.156.883-.369,1.572-.489a4.028,4.028,0,0,0,1.631-.38c-.118-.949-.836-1.148.243-1.314.636-.1,1.413.027,2.2-.111,3.84-.67,7.36-2.268,11.423-2.474l.1-.287c.054-.174.071-.261.124-.433a1.322,1.322,0,0,1,1.65-1.085c-.367,1.447-1.02.428-1.378,1.567l5.155-.721c.381-.547-.115-.318-.237-1.279,1.2-.046.309,1.759,3.175.788.057-.914-.653-.845-.318-2.564a9.428,9.428,0,0,0,.446-2.379c-1.029.034-1.212.17-1.4-.865-.095-.525-.336-1.31-.344-1.675a2.923,2.923,0,0,1,1.883.155c.243-1.328-.875-.816-1.817-.664-.652.106-2.454.362-3.017.515-.948.259-1.688,3.614-3.166,3.148-.293-.647.079-.772.276-1.355-.235-.428-.384-.407-.642-.83-.275-.45-.261-.684-.5-1.056-5.353.593-2.461.774-4.131,1.89a3.344,3.344,0,0,1-1.929.5l-.462-1.167c-.72.01-3.225,1.3-4.43,1.573-4.172.953-6.828,2.2-4.737-3.319,1.017-2.683-.761-2.081.794-3.862,1.888-2.164,1.529-5.648,1.989-8.73a1.791,1.791,0,0,0,1.236.062c1.3-8.843,3.926-13.986,6.366-22.088.7-2.319,1.664-5.1,2.14-7.543-1.547.182-.169.53-1.434.558a.94.94,0,0,1,.581-1.048c.759-.365.363.089,1.256.252.542-.965,1.822-6.233,2.52-8.009,2.01-5.115,6.209-14.075,7.258-19.117.165-.795.276-1.346.476-2.12.275-1.061.137-1.445.328-2.421.564.225.63-.076.9.365a2.967,2.967,0,0,0,.445-1.805l-1.005-.282a.83.83,0,0,1-.15-.063c.378-.584.5-.453.857-.967.223-.32.377-.89.6-1.273.723-1.23,1.119.02,1.647-1.965,1.207-4.536,4.34-7.423,5.259-12.862.405-2.388-.095-1.637,1.617-1.839a18.675,18.675,0,0,0-.3-3.294c-.165-1.427-.7-1.583-1.068-2.856l-1.451.16c-1.093-1.871.371-1.73-3.03-2.022-2.007-.173-2.657-.543-4.6-.226-2.882.473-1.92-.055-3.155,2.062-.421.722-.676.7-1.054,1.542-.644,1.443-.211.993-.062,1.991-.038.025-.107-.009-.129.041s-.1.031-.13.039-.222.051-.273.067c-.758.226-.759.377-.988,1.464-1.242,5.919-6.072,13.331-6.422,16.168l1.428-.073c.277,1,.6.7.6,1.556-.925.034-1.126-.5-1.932-.384-.032.544.732,1.962.814,2.843-.364.476-.388.306-.72.7a6.718,6.718,0,0,0-.5.853l.173.174c.332.345.387.176.468.688-.4.5-1.394,1.02-2.131,1.809a17.63,17.63,0,0,0-3.744,8.26c.579-.106,1.643-.227,1.553.6-.093.864-1.1.367-1.768.267.45,1.128.961.319.882,1.475-.708.61-1.184.279-1.845.689.2.757.736.448,1.008,1.207-.685.44-.635,0-1.5.826.328.882.68.47.815,1.394-1,.233-.98-.107-1.871-.164.076,3.58.435,3.989-1.145,7.657-2.48,5.757-2.785,4.649-.756,5.623-.124.681.007.418-.444.653a3.943,3.943,0,0,0-.9.57,2.645,2.645,0,0,0-1.1,2c-.462,2.225.192,3.747-1.522,4.522-.154,2.542-1,3.073-1.236,4.869-.177,1.382.28.688.367,1.7-.038.288-1.751,2.9-2.1,3.924a38.722,38.722,0,0,0-1.422,4.773,59.532,59.532,0,0,1-2.085,7.23c-.324.933-.815,1.241-.743,2.4l1.307.294c-.073.844-.7.852-1.557.978-.013,1.5.8,1.315.344,2.207-.427.825-.718.57-1.213,1.75a6.872,6.872,0,0,0-.636,2.309c-.016,1.017.549,1.561.452,2.314-.81.059-.492-.274-1.353.014-.23,2.374.25,2.785-.944,5.808-1.34,3.394-.876,2.439-1.208,5.861a2.138,2.138,0,0,1-2.1.288,1.5,1.5,0,0,1-.126-.511l-.208-.518a32.679,32.679,0,0,1-5.891,2.563c-1.062.379-5.194,2.211-5.677,2.966.448.653,1.542.325,1.133,1.618-.226.713-1.054,1.1-1.633,1.337a2.44,2.44,0,0,1-.779-.886c.375-.2.656-.049,1.055-.248.171-.591.036-.625-.1-1.307-.747-.257-1.013-.481-1.554-.683l-.841.672c.144.813.314.258.343,1.252-1.584.028-.463-1.209-2.828-.586a5.15,5.15,0,0,0-2.47,1.314c-1.072,1.141-.236,1.176-2.27,1.341a12.46,12.46,0,0,0-2.95.846c-3.132,1.081-5.954,3.263-9.234,3.911-.843.166-.938-.042-1.183.728.97.766,1.01-.044,2.3-.008-.119.779-.2.6-.883.8-2.055.593-.5.953-2.726-.435-.019-1.522,1.792-3.993.573-5.763-.719-1.042-1.313.052-1.47-1.182,1.247-.482.7.771,2.2,1.181a12.644,12.644,0,0,0,.545-3.376c.025-.634-.093-1.236-.09-1.777.01-1.523,1.273.006,1.334-4.612.024-1.83,1.241-2.975,1.247-6.719.006-4.582,1.71.386,2.269-9.775,1.175-.632,1.11.49,1.758-3.705.225-1.461.662-3.24,1.016-4.72,1.4-5.833,2.661-12.1,4.874-17.688.541-1.367,1.042-2.777,1.631-4.086.5-1.1-.035-1.226-.171-2.271-.108-.824-.227-1.753-.315-2.652-1.805-.61-1.772-.821-2.324-2.677a22.4,22.4,0,0,0-10.362,1.163c-1.042.364-1.036.464-1.377,1.568l-2.021,6.936c-.805,3.132-1.8,6.1-2.584,9.335-.859,3.532-1.264,6.914-1.982,10.077-.491-.093-.493-.3-1.133-.29-.393,1.436-.419,4.3-.723,6.019-.365,2.07-.651,3.765-1.1,5.794-.892,4.014-1.679,7.582-2.241,11.713l3.154-.265c-.292.484-.811.68-1.207,1.183-.514.652-.362,1.047-1.184,1.4a5.739,5.739,0,0,0,.44-1.989l-.793.375c-.766.118.267-.211-.792-.045-.7,2.6.949,1.034.759,2.665-.863-.03-.02-.094-1.012-.351a6.828,6.828,0,0,0-.477,3.665c.778-.47,1.13-.319,1.961.081a1.934,1.934,0,0,1-.133,1.076c-.993.165-1.2-.336-1.869-.673-.286,2.333-1.186,6.946-.826,8.992.2,1.148.792,1.716.833,2.634l-1.53-.318c-.118,1.185.3,1.468.158,2.679-.146,1.265-2.132,4.888-3.253,5.229l-1.011-.854c-.671.52-1.169,1.126-1.91,1.679-2.9,2.159-8.443,4.214-11.97,6.475a13.909,13.909,0,0,0-2.1,1.524c-.633.591-1.155,1.674-1.8,2.015-.855-.285-.177-.321-.8-.621-1.52-.727-5.236,3.325-6.609,4.057-.785-.274-.131-.163-.862-.593-.779.232-4.69,3.222-5.624,3.921a25.682,25.682,0,0,0-3.959,3.116,16.86,16.86,0,0,1-1.106,1.3c-.381-.132-.523-.694-1.116-.475l-3.055,2.514a13.79,13.79,0,0,1-2.184,1.433,15.118,15.118,0,0,0-2.4,1.2c-.536,1,1.612,11.515,2.183,12.6l1.434-.315c-.017-1.148-.287-.431-.247-1.311,2.773-.158,1.879.2,2.156-1.812,3.714-.371,3.84-4.663,6.68-5.068.33.3.116.113.325.393.022.029.049.074.071.1l.294.4a12.138,12.138,0,0,0,2.7-2.3c1.409-1.379,3.312-4.222,5.423-4.587,3.012-.521,1.752-.423,2.743-2.164,2.6-.126,2.679-.489,5.382-2.283a23.559,23.559,0,0,1,3.513-2.2,10.2,10.2,0,0,0,1.515-.6c-.259-.917-1.369-1.311-.992-2.445,1.357.587.978,3.111,5.56-.507a3.666,3.666,0,0,0,1.326-1.754,13.585,13.585,0,0,0,2.38.111c.157-.982-.537-1.452.7-1.353,2.251.181,3.38-1.769,5.791-1.81.079.966-.454,1.183-.639,2.069.521.382.962.189.441,1.178-.372.706-.7.382-.865,1.254.986-.216,2.4-.381,2.572.671-.673.273-1.993-.064-2.827.229-.46,1.26.548,1.137.931,2.012-.106.936-1.388,1.675-.483,2.018.217-.647-.149.629,0-.363.054-.367-.055-.185.145-.452.434-.582.265-.088.825-.168Zm157.286-26.709c.891-2.1,1.792-7.31,2.92-10.353a20.645,20.645,0,0,1,.97-2.485c1.137-2.133,6.319-.205,7.484.764,1.608,1.338.87,2.811.131,4.781-.629,1.679-1.132,3.165-1.7,4.847a15.04,15.04,0,0,0-.438,2.874c-.161,1.065-.523,1.865.916,1.752,6.525-.514,7.766-10.69,11.84-14.546.638-.6,1.218-.737,1.832-1.437,2.2-2.506,4.3-2.747,5.542-4.459.851-1.171.366-1.049,1.931-1.339,2.687-.5,5.078-1.548,7.829-2,3.353-.55,2.835,1.065,4.61,1.83l.263-1.131c4.134-.586,11.789,3.7,11.85,4.339-.287,1.092-.96-.015-.846,1.568.71-.227.818-.58,1.223-1.008,2.313.14,3.965,3.814,3.1,4.6-.5.264-2.822-.067-3.733-.2-.6-.089-1.309-.279-1.943-.337s-1.328.027-1.948-.073c-.346-.883-.119-.849-.234-1.884a2.812,2.812,0,0,1-2.122.208c-.357-.906-.662-2.624-1.758-2.9-.514,1.8.142,2.128.885,2.972-.5.318-2.05.007-3.1-.039l-.524.884c-.014.018-.071.106-.081.08s-.052.056-.085.074c-.424-1.054.721-.672.441-2.128-.826.277-.486.235-.977.929-.571.808-2.066,2.216-3.189,1.16-.461-.405-.293-.1-.17-.887.15-.958.444-.8-1.385.323-.464.284-1.107.558-1.693.884-1.132.629-2.278,1.187-3.335,1.848-2.473,1.548-2.335,1.7-3.824,3.941-.553.831-.8.319-1.9.375-.034,1.323.324,1.49-.97,2.427-4.947,3.583-8.49,9.288-13.324,12.84-.015,1.784.468,1.858-.356,3.656s-2.029,3.685-2.706,5.555c-.652,1.805.046,2.758-1.184,2.273a3.962,3.962,0,0,1-.039,1.132,8.055,8.055,0,0,1-1.4,2.945,37.779,37.779,0,0,1-1.126,4.557c-.424.936-.85,1.106-1.194,1.753-.563,1.059-.243,3.756-.61,5.1-.263.967-.617.793-1.349,1.331.131,1.169.674.813,1.006,1.706a2.941,2.941,0,0,1-.156,2.306c-.759.109-1.012-1.663-1.172-2.187a6.3,6.3,0,0,0-1.534-.535c-2.377-.827.407-1.264-4.068-.134a22.487,22.487,0,0,1-2.739.685c-.4-.471-.119-.529-.426-1.057-1.077-.015-1.536,1.606-2.843,1.112-.359-.8.752-5.09.982-6.25.431-2.182.706-4.319,1.135-6.451.232-1.152,2.417-11.749,2.383-12.668l-3.232,3.889-2.653,4.5c-.348-.331-.485-.855-.862-1.193-1.3.808.405.581.294,2.138-.456.289-.7.037-.991.491-.2.318.193,1.239-.57,1.362-.795.128-.15-.1-.855-.474l-.279-2.1c-.352.238-.38.094-.475.757a2.114,2.114,0,0,0,.142.978c.8,1.907,1.815.775-.706,3.306-1.058,1.063-.48,1.154-.927,2.344-.913-.157-.37-.777-1.615-.9-.163,1.141.442.737.687,1.818-.448,1.134-1.1.794-2.223,1.138-.917.283-.811.988-.956,2.112a9.725,9.725,0,0,0-3.132.664c-1.237.611-.863,1.087-1.588,2.2-.849.135-1.166-.292-2.064-.015-.663.2-.736.669-1.551.536-.072-1.125.777-.862.912-1.951-1.726-.956-1.237,1.634-3.193,1.8-.7-.96-.266-2.03-1.326-2.957-1.256-1.1-2.338-1.056-2.761-1.392-.4-.454-.371-.93-.659-1.4-.853-1.389-1.941-1.91-2.168-3.823l-1.086.164.038-3.676c-.747.14-.809.569-1.232,1.072l-2.324,2.158c-.573.48-.871.4-1.014,1.424l1.233,0,.643-.9c.09.593-.474,1.155-.851,1.555-.582.614-.89,1.369-1.122,1.566-.873-.307.009-.743-1.207-.982-.5.811.038,1.02-.517,1.749-.967-.113-.332.155-.763-.8-.181-.4-.284-.581-.738-.724-.193,1.045-.18,1.138.554,1.409-.288.292-.093.153-.527.369a6.577,6.577,0,0,1-3.612.121c-3.019-.511-1.822-.126-1.991-2.124-1.143-.576-1.965-.8-1.45-2.372-.634.128-.3.181-.826.448-1.827.921-1.092-1.58-1.211-2.689-.964-.029-.7.24-1.291.521-.625.3-.852.117-1.24.668l-1.415,2.382c-1,1.79-1.757,3.58-4.24,3.328.183,1.037.692.677.6,1.833-.949.254-1.286.072-2.29.3-.732.906-.325,1.355-.775,1.98-1.449.756-1.581-.863-1.888-1.544-.533.9.046.993-.022,2.072a2.914,2.914,0,0,1-2.128.069,6.4,6.4,0,0,0-2.008.085c.106-.987.828-1.731-.687-2.036-2.091-.421-1.273-.434-1.231-1.9l-1.164,1.381c-.922-.412-1.859-2.007-2.5-2.877a14.255,14.255,0,0,1-1.74-3.436c-2.337-6.645-1.867-5.594,1.326-6.346.758-1.681-.566-.794-1.678-1.22-.4-1.463.147-2.246.4-3.457.137-.654,0-1.521.092-1.816.213-.7.425-.13,1.182-.023-.018-.872-.307-.985-.2-2.061.154-1.588,1.152-3.067,1.681-4.554.452-1.272.171-2.134,1.014-3.11,4.253-4.927,7.769-12.625,13.1-16.213a16.533,16.533,0,0,1,2.714-1.425,17.1,17.1,0,0,0,2.826-1.308c2.557-1.693,7.106-1.975,10.253-.826,4.841,1.767,2.16.933,3.022,4.394a7.481,7.481,0,0,1,.318,2.638c-.431.067-3.236-.725-2.7.956.617.311.331.092,1.019-.04.023,1.175-.782,1.362-1.438,1.973-.778.724-.747,1.488-1.281,1.978-1.087-.226-.846-.82-1.725-1.194-.022.923.168.513.386,1.379.865,3.441-6.828-1.306-13.1,7.979-1.305,1.933-2.443,5.9-3.213,6.623a17.316,17.316,0,0,0-3.78,6.032c-.907,2.138-2.544,9.089-1.324,11.11.547-.244.227-.027.554-.668.141-.277.18-.378.353-.674.652-1.117,1.419-1.262,1.709-2.611.121-.563.092-1.177.487-1.558.831.6.42,1.069,1.3,1.109.382-1.332-.236-1.9.455-3.511.423-.99.915-1.874,1.316-2.644,2.67-5.137,1.052-5.843,2.954-6.178a2.866,2.866,0,0,0,.8-.22c.386-1.121-.041-1.459.041-2.6a12.138,12.138,0,0,1,6.5-1.224,30.775,30.775,0,0,1,5.086.943c.285.143,1.079.27,1.286.566,1,4.3-2.4,10.689-1.249,14.4,1.715.08,4.164-2.627,4.91-3.464.721-.809,1.213-1.461,2-2.308a56.36,56.36,0,0,1,4.073-4.379c.9-.781.806-1.887,1.083-3.023a16.218,16.218,0,0,1,1.069-3.089c.984-2.014,1.345-1.255,2.052-2.118.051-.481-.184-.5-.2-1.247-.12-4.706,4.244-9.354,4.355-9.587.28-.585.044-2,.207-2.831,1.116-5.727,9-8.474,14.012-5.154a2.427,2.427,0,0,1,1.1,2.03,16.028,16.028,0,0,1-.147,5.8c-.787-.083-.989-.655-1.707-.291-.275,1.227.481,3.393-.515,4.271-.546.482-.778.416-1.392,1.02-1.977,1.942-2.976,5.392-3.427,8.351a2.669,2.669,0,0,1-1.226-.218c.077.745.6.761.306,1.642-.824,2.476-1.7,1.05-1.636,4.938-1.191.472-.557.537-2,.419-.047,1.81,1.268,1.093-.14,4.672-.291.739-.61,1.355-.845,2.082-1.251,3.865.449,2.077,1.865,1,1.706-1.3.77-1.294,1.261-2.305.366-.494,1.768-.91,2.466-1.548.923-.842,3.783-5.161,4.211-5.236.657-.115.592.441,1.151.611.344-.521.124-.447.392-.969.366-.714.166-.175.7-.707-.085-.213-.685-.484-.616-1.073.2-.365,1.515.212,2.519-1.5.861-1.468.841-.93,2.225-1.622-.131-.892-1.327-1.379.72-3.026a8.851,8.851,0,0,1,2.822-1.766c-.411,1.044-1.447,1.623-1.326,2.508.971-.023.541-.162,1.163-.486.6-.316.692-.081,1.226-.32.394-.361-.324-2.372.32-4.205l1.163.4a1.932,1.932,0,0,0,.759,2.269c.4-.716-.238-2.033-.438-2.856.908-.487.294-.621,1.8-1.081l-.415-1.337c.828-.093.738.55,1.294.776Zm-9.031-31.621c-.527-.015-2.112-1.425-3.85,2.013a7.884,7.884,0,0,1-.738,1.6c-.654-.259-.382-.345-1.266-.483-1.484,2.052-.992,1.692-2.721,3.088.1.977.267.5.48,1.26a2.227,2.227,0,0,0-1.995,1.551c.733.77.566.245,1.114,1.458a5.281,5.281,0,0,0,4.382,3.41c3.259.372,5.657-1.907,7.178-3.217,1.31-1.129-.127-1.068.629-4.171.7-2.887.88-6.131-.9-8.52C-2517.766,6484.948-2518.227,6488.136-2518.568,6488.991Z" fill="#d21113" fill-rule="evenodd"/>
  </g>
</svg>
