<svg id="Group_1" data-name="Group 1" xmlns="http://www.w3.org/2000/svg" width="267.602" height="167.432" viewBox="0 0 267.602 167.432">
                <path id="Path_1" data-name="Path 1" class="header__logo-room white" d="M-351.2,899.763h27.475v16.928h-5.866l8.272,9.667V899.763h27.588v27.21h-27.588V926.9l-9.394.206-8.609-10.414h-4.656V927.1H-351.2v-27.34Zm97.294,0H-233.7v27.21h-7.395V907.52h-2.493v19.453h-7.4V907.52H-253.9v19.453h-7.4v-27.21Zm-37.28,0h27.588v27.21h-27.588v-27.21Zm7.406,7.3v12.6H-271v-12.6Zm-30.133,0v12.6h12.777v-12.6Zm-17.207,2.228v-2.137h-12.858V909.3Z" transform="translate(351.196 -835.756)" fill="#000" fill-rule="evenodd"></path>
                <path id="Path_2" data-name="Path 2" d="M-138.415,871.778l.05.48c-.559.409-.4.418-.736,1.033-.268.483-.65.56-.645,1.187,1.282,1.058,1.176-.659,2.207.131-.093.377.082.087-.27.439-.291.292-1.238.714-.762,1.4.65-.181.811-1.4,2.026-1.1-.2.541-.974.655-1.294,2.012-.4,1.691.727,2.668.949,1.376-.021-.027-.06-.094-.073-.071l-.657-.4c.853-.761.764-1.364,1.458-1.476a1.039,1.039,0,0,1,.133.65c-.4.33-.614.138-.677.789a2.671,2.671,0,0,0,.923-.3c.323-.112.678-.083,1.107-.2l.035-1.009c.442.235-.028.857,1.7.133-.088-.522-.336-.352-.042-.971a3.637,3.637,0,0,0,.453-.857l.561.207.552-2.98c-.024-.766-.156-.531.156-1.2l.08-.34-.814-.3c.105-.788.882-1.23,1.142-4.886.075-1.062.283-4.346,1.375-4.785.318-.127.816-.175,1.226-.322,2.686-.966,3.247-1.906,6.319-2.878.4-.127.909-.137,1.283-.266.326-.112,1.155-1.005,1.623-1.321,1.734-1.173,4.55-1.853,6.522-2.682,2.369-1,2.465-1.912,4.113-1.986,1.727-.077,3.315-1.759,4.457-1.658,0,.608-.281.669-.464,1.144-.366.952.114.556.375,1.184l-.786.178c.142,2.389-.471,2.761-.49,3.608-.012.55.12.011.106.7-.006.3-.195.984-.232,1.532l-.151.108c-.086.073-.327.093-.3.476.035.516.3.083.259.661-.263.175-.335.038-.588.172l-.052,2.124c.319.2.164.018.58.114-.219.794-1.277,1.228-1.161,2.214,0,.029.019.073.022.1.108.645.6.37,1.093.555.078.558-.415.614-.7.494l-.283-.179c-.027-.018-.061-.051-.095-.07.181.969.587.71-.1,1.576-.582.732-.635.673-.268,1.455-.017.026-.054.026-.065.067s-.051.051-.065.065c-.186.185-.243.055-.369.491a4.968,4.968,0,0,0,.614,2.714c-1.132.466.076-.857-1.171-.678-.693,1.191.641,1.079.983,1.589l-1,.227c-.1.581.014.678.424.864.474.216.524.051.742.562-.2.321-.528.334-.84.484-.029.013-.068.04-.092.052a.645.645,0,0,0-.092.055c.584.466,1.217.133,1.6,1.086-1.037-.146-2.65-.214-2.429,1.352a1.859,1.859,0,0,0,.763,1.233,12.805,12.805,0,0,1,1.03,1.05c-.222.759-1.267,1.042-1.4.089-.083-.576.356-.289-.236-.581-.2.456-.011.459-.178,1.1l-.425,2.614c0,.61.1.411.94.478a2.861,2.861,0,0,1-.307.6c-.451-.117-.381-.416-.853-.573.113,1.826-.386,3.586-.106,5.381.076.49.316,1.164.311,1.461l-.873.392c-.176,1,.3.821,1.048.861.184.217.114.2.219.35.369.513.808.239.85,1.059-1.158.047-.576-.353-1-.892a.823.823,0,0,0-.634-.264l-.681.321c.3.925,1.911,1.236,2.076,2.612l-.125.578c-.252-.2-.123-.421-.236-.679-.846.155-.14.2-.871.34-.308-.772-.059-1.713-.871-1.981-.052.663.226.906.126,1.541a8.6,8.6,0,0,0-.356,1.574c.4-.109.866-.542.881.121.011.493-.5.648-.768.867.108,1.3,1.241,1.509,1.113,2.314-.893-.039-.618-.43-1.361-.639-.769,1.568-.461,1.474-.284,2.135a4.244,4.244,0,0,1-.03,1.084c.348-.016.7.026.843-.155a.594.594,0,0,0,.036-.059s.108-.311.114-.329c-.166-.177-.443-.375-.638-.59.5-.194.818-.158.86.285.073.766-.037,2.14-1.037,2.4-.467-.317.034-.223-.493-.579-.041,1.256-.1,1.277.773,1.982a16.639,16.639,0,0,1,1.17,1.38c-.4-.347-.491-.052-.917-.2-.469-.16-.431-.518-.652-.9a1.054,1.054,0,0,0-.267.2.55.55,0,0,0-.189.289,2.35,2.35,0,0,0-.132.927l.085.792c.015.246.057.135.325.525-.548.226-.24,1.1-.2,1.648.093,1.4-.26.877-.488,1.634.359.866,1.227.288,1.2,1.407-.5-.08-.217-.1-.5-.3-.859-.617-1.1.469-.3,1.016a1.579,1.579,0,0,0,1.044.257c.279.429.108.6,0,.9-.382,1.1-1.11.959-1.4,2.181.327-.143.212-.28.438-.611a3.435,3.435,0,0,1,.943.226c-.031.523-.155.564-.444.882l-.724-.193c.083.984.784.892.9,1.553-.224.254-.576.493-.831.093-.17-.267-.052-.215-.13-.454l-.567-.386c-.064.3.288.956.129,1.73-.137.669-.4,1.1.277,1.527.427-.1.438-.172.623-.5-.178-.284-.032-.066-.282-.238-.343-.236-.066.151-.332-.22.832.435.312-.246.85.65.241.4.715.6.295.988-.49.23-.573-.031-.923-.21.107.422.232.4.546.6a2.811,2.811,0,0,0,.838.46,3.109,3.109,0,0,0,2-.212c.171,1.936,1.066.356,1.411,1.608-.587.638-.649.388-.873,1.456-.12.571.016.444-.428.717-.409.252.02-.2-.351.249a2.1,2.1,0,0,0-.263.529c.166.124.051.058.3.155.116.045.166.026.31.08l-.587.293a1.767,1.767,0,0,1-.22-1.167c.012-.009.207-.116.211-.119l.241-.138c.019-.011.058-.03.084-.049a3.037,3.037,0,0,1-.15-1.073,9,9,0,0,0,.873-.426l-.2-.642-1,.44c-.138-.352.154-.332-.444-.583-1.075-.451-.855-.026-1.819.143a2.7,2.7,0,0,0-1.161.252c.156.461.765.429.939.826a6.321,6.321,0,0,0,.069,1.669c.194.613.482.494.446,1.217-.648.251-1.383-.137-1.534.682a1.97,1.97,0,0,0,.533,1.719l2.458-1.721a3.161,3.161,0,0,1-1.079,1.466c-.578.442-1.07.677-1.195,1.634l.227-.215.071-.066.532-.465c.134.342.17.244.241.5.164.59.051,1.43.4,1.936.436-.147.1-.006.309-.256.23-.275-.007-.171.282-.335.373.244.406.707.861.939.63.32.45-.244.007-.719-.3-.317-.432-.361-.4-.921.261-.078.714-.249.983-.12.138.066.167.138.267.309.291.5-.215.214.289.413a2.148,2.148,0,0,0-.147-1.379c-.707-.122-.693.2-1.261.307.153-.452.382-.459-.007-1.017-.02.019-.044.026-.051.062a1.63,1.63,0,0,1-1.128.979,6.4,6.4,0,0,1,.979-1.752l.144-.21a.46.46,0,0,1,.055-.064c.4.431.352.762,1.021.691-.055-1.183-.048-1.308,1.1-1.622a4.83,4.83,0,0,0-.553-1.254c.247.189.261.172.648.185.09.541.051.644.376.945,1.241-.268.3-1.624-.275-2.2-.447-.443-.751-.452-.433-1.4.474-.238.821.206,1.186.41l1.055-1.023c-.053-.566-.011-.695-.47-.885-.813.348-.152,1-.964.788l-.073-.2c-.031-.235-.075.071-.014-.292.089-.531.494-.627.9-.763l.263-.1a1.315,1.315,0,0,0-.338-.944c.174-.319.491-.468.421-.789-.1-.445-.355-.1-.566-.745.19-.084.374.018.558-.158.238-.227-.079-.207.5-.522a14.038,14.038,0,0,1-.021-1.933c.142-1.061-.041-1.081-.78-1.381.075-.714.327-.344.255-.957-.059-.505-.263-.283-.5-.729.86-.047.953.281,1.532.015.154-1.376-.446-3.607-.023-6.634a11.106,11.106,0,0,0,.189-3.232c-.239-1.6-.683-1.651.722-2.29.041-1.087-.282-.792-.781-1.3.185-.355.379-.331.735-.462.171-1.263-.445-.615.2-2.876a5.707,5.707,0,0,0,.116-1.113l-.979-.122c-.062-.73.615-.747,1.172-.919a5.291,5.291,0,0,0-.62-3.116c.369.1.642.347.87-.061.262-.47-.062-.257-.141-.671a.8.8,0,0,1-.021-.331c.025-.861.637-1.086-.015-1.89-.309.428-.085.547-.772.427-.033-.812.247-1.072.994-.875.047-.514-.028-.358-.087-.873l.843.074c-.064-2.884-.9-2.511-.6-3.33.366.1.435.2.53.522.355-.49.233-.6-.1-1.131-.393-.623.014-.6-.015-1.445l.68-.068a3.517,3.517,0,0,0-.151-1.015c-.108-.681.081-.387.054-1.011a3.285,3.285,0,0,1-1.5-2.018c.314-.4.32-.369.825-.6,0,.687-.229.474.169,1.146a4.258,4.258,0,0,1,.515,1.015c.7-.459.715-1.1.682-1.921l-.007-.647-.856-.044c-.749-.145-.791-1.2.183-1.268-.117.383-.2.345,0,.682.134.223.295.368.58.271.426-.144.226-1.11.3-1.557.1-.6.281-.948.345-1.561.188-1.8-1.067-1.206.636-2.483a5.786,5.786,0,0,1,.27-3c.219-.962-1.5-2.237.253-1.595.472-.451.442-.021.424-.72-.41-.258-.511-.032-.932-.354.05-.592.256-.387.737-.786-.118-.9-.658-.417-.914-1.317.793-.014.751.2,1.58-.257.084-.671-.16-1.067.025-1.677.387-1.273.168-.34-.155-1.274.02-.026.055-.093.065-.073s1.232-1.373.957-2.4c-.134-.5-.243-.343-.458-.828-.012-.334.733-.45,1.053-1.858.338-1.491.075-1.307-.169-2.558.492.054.467.177.85-.068-.072-.568.171-.138-.412-.422-.323-.157-.346-.056-.415-.522.285-.3.572-.3,1.022-.5.184-1.189-.345-1.656-.288-2.348.059-.713.3-.15.792-.591.281-.253.186-.76.267-1.147.169-.811,1.021-.751,1.869-.958.435-.106.6-.253,1.076-.335a2.743,2.743,0,0,0,1.117-.26c-.081-.649-.573-.785.166-.9.435-.067.968.018,1.508-.076,2.628-.459,5.038-1.553,7.82-1.694l.072-.2c.037-.119.049-.179.085-.3a.905.905,0,0,1,1.13-.742c-.251.99-.7.293-.943,1.072l3.529-.494c.261-.374-.079-.217-.162-.875.824-.031.211,1.2,2.174.539.039-.626-.447-.578-.218-1.755a6.4,6.4,0,0,0,.306-1.628c-.7.023-.829.116-.958-.592-.065-.36-.23-.9-.235-1.147a2,2,0,0,1,1.289.106c.166-.909-.6-.559-1.244-.454-.446.073-1.681.247-2.065.352-.649.177-1.156,2.474-2.168,2.155-.2-.443.055-.529.189-.928-.161-.293-.263-.279-.44-.568-.188-.308-.178-.469-.339-.723-3.665.406-1.685.53-2.828,1.294a2.3,2.3,0,0,1-1.32.34l-.317-.8c-.493.007-2.208.888-3.032,1.076-2.856.652-4.675,1.5-3.243-2.272.7-1.837-.521-1.425.544-2.644,1.293-1.481,1.047-3.866,1.361-5.976a1.229,1.229,0,0,0,.846.042c.893-6.054,2.688-9.575,4.358-15.121.478-1.588,1.139-3.492,1.465-5.165-1.059.125-.115.363-.981.383a.643.643,0,0,1,.4-.717c.519-.25.248.061.86.172.371-.661,1.247-4.267,1.725-5.483,1.376-3.5,4.25-9.636,4.969-13.087.113-.544.19-.921.326-1.451.188-.727.093-.99.224-1.658.387.154.432-.052.614.25a2.027,2.027,0,0,0,.3-1.236l-.688-.193a.544.544,0,0,1-.1-.043c.259-.4.342-.31.587-.662.152-.218.258-.609.412-.871.5-.842.766.014,1.128-1.345.826-3.105,2.97-5.082,3.6-8.805.277-1.635-.065-1.121,1.107-1.259a12.738,12.738,0,0,0-.206-2.255c-.113-.977-.478-1.084-.732-1.955l-.993.11c-.748-1.281.254-1.185-2.075-1.385a10.014,10.014,0,0,0-3.145-.154c-1.974.323-1.315-.038-2.161,1.412-.288.494-.463.476-.721,1.055-.441.988-.145.68-.043,1.363-.026.017-.073-.007-.088.028s-.069.021-.09.026-.151.035-.186.046c-.519.155-.52.258-.676,1-.851,4.052-4.157,9.127-4.4,11.068l.977-.05c.19.688.411.478.411,1.065-.634.023-.772-.339-1.323-.263-.022.372.5,1.343.557,1.947-.249.326-.266.209-.493.478a4.607,4.607,0,0,0-.344.584l.118.119c.227.236.265.121.32.471-.274.34-.955.7-1.459,1.239a12.073,12.073,0,0,0-2.563,5.655c.4-.072,1.124-.155,1.063.411-.064.592-.754.252-1.21.183.308.772.658.218.6,1.01-.484.418-.811.191-1.263.472.136.518.5.307.69.826-.469.3-.435,0-1.029.565.225.6.466.322.558.955-.687.159-.671-.073-1.281-.113.052,2.451.3,2.731-.784,5.242-1.7,3.942-1.907,3.183-.518,3.85-.084.466,0,.287-.3.447a2.7,2.7,0,0,0-.615.39,1.812,1.812,0,0,0-.754,1.369c-.317,1.523.132,2.566-1.042,3.1-.106,1.74-.688,2.1-.846,3.333-.121.947.191.471.251,1.164-.026.2-1.2,1.987-1.435,2.687a26.576,26.576,0,0,0-.973,3.268,40.764,40.764,0,0,1-1.427,4.95c-.222.639-.558.849-.508,1.641l.895.2c-.05.578-.48.583-1.066.669-.01,1.028.551.9.235,1.511-.292.565-.491.391-.83,1.2a4.692,4.692,0,0,0-.435,1.581c-.011.7.376,1.068.309,1.584-.554.04-.337-.187-.926.01-.158,1.626.171,1.907-.647,3.977-.918,2.323-.6,1.67-.827,4.012a1.464,1.464,0,0,1-1.44.2,1.041,1.041,0,0,1-.086-.35l-.143-.354a22.334,22.334,0,0,1-4.033,1.754c-.727.259-3.556,1.514-3.887,2.031.307.447,1.056.223.776,1.108-.155.488-.722.756-1.118.916a1.67,1.67,0,0,1-.534-.607c.257-.138.45-.034.722-.17.117-.4.025-.428-.068-.894-.512-.176-.694-.329-1.064-.468l-.575.46c.1.556.215.177.235.857-1.085.02-.317-.827-1.936-.4a3.524,3.524,0,0,0-1.691.9c-.734.782-.161.805-1.554.918a8.471,8.471,0,0,0-2.02.579c-2.144.74-4.076,2.234-6.322,2.677-.577.114-.642-.028-.809.5.664.524.691-.03,1.573-.006-.082.534-.135.409-.6.545-1.407.407-.341.653-1.867-.3-.013-1.042,1.227-2.734.392-3.946-.492-.713-.9.036-1.006-.809.853-.33.48.528,1.507.809a8.64,8.64,0,0,0,.373-2.312c.017-.433-.063-.846-.061-1.216.006-1.042.871,0,.913-3.157.016-1.252.85-2.037.854-4.6,0-3.137,1.171.264,1.554-6.692.8-.433.76.336,1.2-2.537.154-1,.454-2.218.7-3.231a90.375,90.375,0,0,1,3.337-12.109c.371-.936.713-1.9,1.117-2.8.339-.755-.024-.839-.117-1.555-.073-.564-.155-1.2-.216-1.816-1.235-.417-1.213-.562-1.591-1.832a15.334,15.334,0,0,0-7.094.8c-.713.25-.71.318-.943,1.073l-1.383,4.749c-.551,2.144-1.231,4.18-1.769,6.39-.588,2.418-.866,4.733-1.357,6.9-.337-.063-.338-.205-.776-.2-.268.983-.286,2.941-.495,4.121-.25,1.417-.445,2.577-.754,3.967-.61,2.748-1.15,5.19-1.534,8.019l2.159-.181c-.2.331-.555.465-.826.809-.352.446-.247.717-.81.956a3.932,3.932,0,0,0,.3-1.361l-.543.257c-.524.081.183-.145-.542-.031-.476,1.782.65.708.52,1.824-.591-.02-.014-.064-.693-.239a4.674,4.674,0,0,0-.327,2.508c.533-.322.774-.218,1.342.056a1.32,1.32,0,0,1-.091.736c-.68.113-.82-.23-1.28-.461-.2,1.6-.812,4.755-.565,6.156.138.786.542,1.175.57,1.8l-1.047-.217c-.082.811.2,1,.108,1.834-.1.866-1.46,3.346-2.227,3.58l-.692-.584c-.459.356-.8.771-1.307,1.149-1.982,1.478-5.78,2.885-8.2,4.432a9.533,9.533,0,0,0-1.438,1.044c-.433.4-.79,1.145-1.232,1.379-.586-.2-.121-.22-.55-.425-1.041-.5-3.585,2.276-4.525,2.777-.537-.187-.09-.111-.59-.405a36.369,36.369,0,0,0-3.85,2.684,17.55,17.55,0,0,0-2.71,2.133,11.6,11.6,0,0,1-.757.887c-.261-.09-.358-.475-.764-.325l-2.091,1.72a9.437,9.437,0,0,1-1.5.982,10.319,10.319,0,0,0-1.645.821c-.367.685,1.1,7.883,1.5,8.625l.982-.216c-.012-.785-.2-.295-.17-.9,1.9-.108,1.287.135,1.476-1.24,2.543-.254,2.629-3.192,4.574-3.469.226.206.08.077.222.269.015.019.034.05.049.07l.2.271a8.31,8.31,0,0,0,1.845-1.574c.964-.944,2.268-2.89,3.713-3.14,2.061-.357,1.2-.289,1.877-1.482,1.779-.086,1.835-.334,3.685-1.563a16.081,16.081,0,0,1,2.4-1.5,7.031,7.031,0,0,0,1.037-.413c-.178-.628-.937-.9-.68-1.674.929.4.67,2.13,3.806-.347a2.508,2.508,0,0,0,.908-1.2,9.322,9.322,0,0,0,1.629.076c.107-.672-.367-.994.481-.926,1.54.124,2.314-1.212,3.964-1.239.054.661-.311.81-.438,1.416.357.261.659.13.3.807-.254.483-.481.261-.592.858.675-.148,1.642-.26,1.762.459-.461.187-1.365-.043-1.936.157-.315.863.375.778.637,1.377-.073.641-.95,1.147-.33,1.381.148-.443-.1.431,0-.248.037-.251-.038-.126.1-.31.3-.4.181-.061.565-.115Zm107.678-18.285c.61-1.438,1.227-5,2-7.088a14.167,14.167,0,0,1,.664-1.7c.778-1.46,4.326-.141,5.124.523,1.1.916.6,1.925.09,3.273-.431,1.15-.775,2.167-1.164,3.319a10.266,10.266,0,0,0-.3,1.967c-.111.729-.358,1.277.627,1.2,4.467-.352,5.316-7.319,8.1-9.958.437-.413.835-.5,1.255-.984,1.5-1.716,2.943-1.88,3.794-3.052.583-.8.25-.718,1.322-.917,1.839-.341,3.476-1.06,5.359-1.369,2.3-.376,1.94.729,3.156,1.253l.18-.775c2.83-.4,8.071,2.531,8.112,2.971-.2.747-.657-.01-.578,1.073.485-.155.559-.4.837-.69,1.584.1,2.714,2.611,2.122,3.149a8.465,8.465,0,0,1-2.555-.137c-.413-.061-.9-.191-1.33-.23s-.909.018-1.334-.05c-.237-.605-.081-.581-.16-1.29a1.924,1.924,0,0,1-1.453.143c-.244-.62-.453-1.8-1.2-1.985-.352,1.23.1,1.457.606,2.035-.345.217-1.4,0-2.119-.027l-.359.606c-.009.012-.048.072-.055.054s-.035.039-.058.051c-.291-.721.493-.459.3-1.456-.566.189-.333.161-.669.636-.391.553-1.415,1.517-2.183.794-.316-.278-.2-.07-.116-.608.1-.656.3-.546-.949.221-.318.195-.758.383-1.159.605-.775.431-1.56.812-2.283,1.265a5.936,5.936,0,0,0-2.618,2.7c-.378.569-.546.218-1.3.257-.023.906.222,1.02-.664,1.661-3.387,2.453-5.812,6.359-9.121,8.791-.011,1.221.32,1.272-.244,2.5s-1.389,2.522-1.852,3.8c-.447,1.236.031,1.888-.811,1.556a2.688,2.688,0,0,1-.026.775,5.529,5.529,0,0,1-.96,2.016,25.761,25.761,0,0,1-.771,3.119c-.29.641-.582.757-.817,1.2-.385.725-.166,2.571-.417,3.491-.18.661-.423.543-.924.911.09.8.462.556.689,1.168a2.007,2.007,0,0,1-.106,1.578c-.52.074-.693-1.139-.8-1.5a4.289,4.289,0,0,0-1.05-.366c-1.628-.566.278-.865-2.785-.092a15.58,15.58,0,0,1-1.875.469c-.274-.323-.082-.362-.292-.724-.737-.011-1.052,1.1-1.946.761-.246-.546.516-3.485.672-4.28.3-1.494.484-2.956.777-4.416.158-.788,1.654-8.043,1.631-8.672l-2.212,2.663-1.816,3.083c-.238-.227-.332-.585-.59-.817-.888.553.278.4.2,1.464-.311.2-.482.025-.678.336-.137.217.132.848-.39.932-.545.088-.1-.068-.585-.324l-.191-1.436c-.241.163-.26.064-.325.518a1.44,1.44,0,0,0,.1.669c.547,1.306,1.243.531-.483,2.263-.725.728-.329.79-.635,1.605-.625-.108-.253-.532-1.106-.617-.112.782.3.5.471,1.245-.307.775-.757.543-1.522.779-.628.194-.556.677-.655,1.446a6.651,6.651,0,0,0-2.144.454c-.847.419-.591.744-1.087,1.5-.581.092-.8-.2-1.413-.011-.454.141-.5.458-1.062.367-.049-.77.532-.589.624-1.335-1.182-.655-.847,1.119-2.186,1.23-.477-.658-.182-1.391-.908-2.025a6.71,6.71,0,0,0-1.89-.953c-.272-.31-.254-.637-.451-.957-.585-.951-1.329-1.308-1.485-2.617l-.743.112.026-2.516c-.511.1-.554.39-.843.734L-58.3,872.3c-.392.329-.6.273-.694.975h.844l.44-.613c.062.406-.324.791-.582,1.064-.4.42-.609.937-.768,1.073-.6-.21.007-.509-.826-.672-.344.555.026.7-.354,1.2-.661-.078-.227.105-.523-.549-.124-.273-.194-.4-.505-.5-.132.716-.123.779.38.964-.2.2-.063.1-.361.253a4.506,4.506,0,0,1-2.473.083c-2.067-.35-1.248-.086-1.363-1.454-.783-.394-1.345-.546-.992-1.624-.435.088-.2.124-.566.307-1.251.63-.748-1.081-.83-1.841-.66-.021-.476.164-.884.357-.428.2-.583.08-.848.457l-.969,1.631c-.688,1.225-1.2,2.451-2.9,2.279.125.71.474.464.412,1.255-.65.173-.88.049-1.567.207-.5.62-.223.928-.531,1.356-.992.517-1.082-.591-1.292-1.057-.365.616.031.68-.015,1.418a1.993,1.993,0,0,1-1.457.047,4.389,4.389,0,0,0-1.375.059c.073-.676.567-1.185-.47-1.394-1.432-.288-.872-.3-.843-1.3l-.8.947c-.631-.283-1.273-1.375-1.713-1.97a9.75,9.75,0,0,1-1.191-2.353c-1.6-4.549-1.279-3.829.907-4.344.519-1.151-.387-.544-1.148-.835a4.166,4.166,0,0,1,.275-2.367c.094-.448,0-1.042.063-1.244.146-.478.291-.088.809-.015-.012-.6-.21-.675-.139-1.412A13.965,13.965,0,0,1-82,859.575c.31-.87.118-1.461.694-2.129,2.912-3.374,5.319-8.643,8.97-11.1a11.277,11.277,0,0,1,1.858-.975,11.744,11.744,0,0,0,1.934-.9,8.748,8.748,0,0,1,7.02-.566c3.314,1.21,1.479.639,2.069,3.009a5.121,5.121,0,0,1,.217,1.806c-.3.046-2.215-.5-1.847.654.423.213.227.063.7-.027.015.8-.536.933-.985,1.351-.532.495-.511,1.018-.876,1.354-.744-.155-.58-.562-1.181-.817-.016.631.114.351.264.944.592,2.356-4.674-.894-8.967,5.462-.894,1.323-1.673,4.041-2.2,4.534a11.847,11.847,0,0,0-2.588,4.129c-.621,1.464-1.741,6.223-.907,7.606.374-.167.156-.018.38-.457.1-.189.123-.258.242-.462.446-.765.971-.864,1.17-1.787.083-.386.063-.806.333-1.066.569.413.288.732.891.759.262-.912-.161-1.3.311-2.4.29-.678.627-1.282.9-1.81,1.828-3.517.721-4,2.023-4.229a1.955,1.955,0,0,0,.546-.15c.264-.768-.028-1,.028-1.779a8.3,8.3,0,0,1,4.453-.838,21.122,21.122,0,0,1,3.482.645c.195.1.739.185.88.388.684,2.947-1.646,7.317-.855,9.857,1.174.055,2.851-1.8,3.362-2.371.493-.554.831-1,1.369-1.58a38.607,38.607,0,0,1,2.788-3c.615-.534.552-1.292.742-2.069a11.083,11.083,0,0,1,.732-2.115c.674-1.38.921-.86,1.4-1.45.036-.33-.125-.342-.138-.854-.083-3.221,2.905-6.4,2.981-6.563a13.645,13.645,0,0,0,.142-1.938c.764-3.921,6.163-5.8,9.592-3.528a1.659,1.659,0,0,1,.75,1.39,10.964,10.964,0,0,1-.1,3.969c-.539-.056-.677-.448-1.169-.2-.188.84.33,2.322-.352,2.924-.374.33-.533.285-.953.7-1.353,1.33-2.037,3.691-2.346,5.717a1.836,1.836,0,0,1-.839-.149c.052.51.409.521.209,1.124-.563,1.695-1.162.719-1.12,3.38-.815.324-.381.368-1.369.287-.032,1.239.868.749-.1,3.2-.2.506-.417.928-.578,1.426-.856,2.646.308,1.422,1.277.685,1.167-.888.526-.886.863-1.578.251-.339,1.21-.623,1.688-1.06.631-.577,2.59-3.534,2.883-3.584.45-.079.4.3.788.418.236-.357.085-.306.268-.663.25-.489.113-.12.48-.484-.059-.145-.47-.331-.422-.734.14-.25,1.037.145,1.724-1.028.589-1.005.576-.637,1.523-1.11-.09-.611-.908-.944.493-2.071a6.051,6.051,0,0,1,1.932-1.209c-.282.714-.991,1.111-.908,1.717.665-.016.371-.111.8-.333s.474-.055.84-.219c.269-.247-.222-1.624.219-2.878l.8.274a1.323,1.323,0,0,0,.519,1.553c.276-.49-.163-1.391-.3-1.955.621-.333.2-.425,1.232-.74l-.284-.916c.567-.063.505.377.886.532Zm-6.182-21.648c-.361-.011-1.446-.976-2.636,1.378a5.409,5.409,0,0,1-.505,1.093c-.447-.177-.261-.236-.866-.33A6.318,6.318,0,0,1-42.79,836.1c.07.669.183.341.329.862a1.525,1.525,0,0,0-1.366,1.062c.5.527.388.167.762,1a3.617,3.617,0,0,0,3,2.335c2.232.254,3.873-1.306,4.915-2.2.9-.773-.087-.731.431-2.856.482-1.977.6-4.2-.617-5.833C-36.371,829.078-36.686,831.26-36.919,831.846Z" transform="translate(257.475 -765.542)" fill="#d21113" fill-rule="evenodd"></path>
              </svg>