<svg width="24" height="24" viewBox="0 0 24 24" xmlns="http://www.w3.org/2000/svg"><path d="M17 12c0 4.5-2 8-5 8s-5-3.5-5-8 4-10 5-10 5 5.5 5 10z" fill="currentColor"></path><path d="M4 15.5c1.03 1.471 2.572 2.696 4.179 3.5C6.55 17.534 5.5 15.073 5.5 12c0-1.636.073-3.627.497-5.463A28.072 28.072 0 0 0 4 6c-.82.574-2.438 6.019 0 9.5z" fill="currentColor"></path><path d="M23.782 12c-.558.046-1.094.105-1.609.177-.177 1.563-.608 3.078-1.356 4.24-1.301 2.023-3.33 3.662-5.4 4.583 2.33-.042 4.19-.69 5.58-1.942 1.96-1.764 2.96-4.043 3-6.837v-.02c-.01-.12-.105-.21-.215-.2z" fill="currentColor"></path><path d="M2.998 19.058C4.38 20.313 6.24 20.96 8.579 21c-2.07-.92-4.1-2.56-5.4-4.582-.748-1.163-1.18-2.678-1.357-4.24A27.95 27.95 0 0 0 .215 12c-.11-.01-.206.08-.214.2L0 12.223c.054 2.794 1.053 5.072 2.998 6.836z" fill="currentColor"></path><path d="M18.003 6.537c.63-.196 1.296-.375 1.997-.537.82.574 2.438 6.019 0 9.5-1.03 1.471-2.572 2.696-4.179 3.5 1.629-1.467 2.679-3.928 2.679-7 0-1.636-.073-3.627-.497-5.463z" fill="currentColor"></path></svg>